<svg width="143" height="144" viewBox="0 0 143 144" fill="none" xmlns="http://www.w3.org/2000/svg">
<mask id="mask0_3582_25366" style="mask-type:luminance" maskUnits="userSpaceOnUse" x="54" y="104" width="34" height="34">
<path d="M70.7899 137.429C80.013 137.429 87.4898 129.952 87.4898 120.729C87.4898 111.506 80.013 104.029 70.7899 104.029C61.5667 104.029 54.0898 111.506 54.0898 120.729C54.0898 129.952 61.5667 137.429 70.7899 137.429Z" fill="white"/>
</mask>
<g mask="url(#mask0_3582_25366)">
<path d="M85.7195 129.12C94.9427 129.12 102.42 121.643 102.42 112.42C102.42 103.197 94.9427 95.7197 85.7195 95.7197C76.4964 95.7197 69.0195 103.197 69.0195 112.42C69.0195 121.643 76.4964 129.12 85.7195 129.12Z" stroke="#FF2481" stroke-width="4" stroke-miterlimit="10"/>
<path d="M85.7194 135.24C98.3226 135.24 108.539 125.023 108.539 112.42C108.539 99.8165 98.3226 89.5996 85.7194 89.5996C73.1163 89.5996 62.8994 99.8165 62.8994 112.42C62.8994 125.023 73.1163 135.24 85.7194 135.24Z" stroke="#FF2481" stroke-width="4" stroke-miterlimit="10"/>
<path d="M80.4396 138.259C93.0428 138.259 103.26 128.042 103.26 115.439C103.26 102.836 93.0428 92.6191 80.4396 92.6191C67.8365 92.6191 57.6196 102.836 57.6196 115.439C57.6196 128.042 67.8365 138.259 80.4396 138.259Z" stroke="#FF2481" stroke-width="4" stroke-miterlimit="10"/>
</g>
<path d="M70.7899 137.429C80.013 137.429 87.4898 129.952 87.4898 120.729C87.4898 111.506 80.013 104.029 70.7899 104.029C61.5667 104.029 54.0898 111.506 54.0898 120.729C54.0898 129.952 61.5667 137.429 70.7899 137.429Z" stroke="#FF2481" stroke-width="2" stroke-miterlimit="10"/>
<path d="M59.74 62.8599L75.73 85.5699C76.61 86.8099 77.69 86.5999 79.13 86.1099C79.71 85.4999 79.78 84.5699 79.3 83.8899L63.44 61.1799C62.7 60.1199 61.24 59.8399 60.16 60.5599C59.4 61.0699 59.21 62.1099 59.74 62.8599Z" fill="#FF2481"/>
<path d="M60.3297 79.2697C61.5297 80.4697 63.5297 80.2997 64.5097 78.9197L69.8197 71.4197L69.1997 70.4397C68.6697 69.6797 67.9797 69.1997 67.3597 69.8997L60.2897 77.7497C59.8997 78.1797 59.9197 78.8497 60.3297 79.2697Z" fill="#FF2481"/>
<path d="M55.9697 82.5394L22.1697 120.069C21.4597 120.859 21.9897 122.119 23.0497 122.169L28.7797 122.429C31.7397 122.569 34.5697 121.179 36.2897 118.759L59.7897 85.5894C60.4797 84.6194 60.3697 83.2894 59.5197 82.4494C58.5297 81.4494 56.9097 81.4994 55.9697 82.5394Z" fill="#FF2481"/>
<path d="M70.62 75.0994L34.2 124.549C33.87 124.999 33.32 125.239 32.76 125.179L15.62 123.379C15.29 123.349 14.95 123.419 14.67 123.579L8.84998 126.929C8.16998 127.319 7.96998 128.199 8.41998 128.839C8.74998 129.319 9.35998 129.529 9.91998 129.359L15.92 127.489C16.57 127.289 17.27 127.519 17.67 128.069L23.88 136.609C24.14 136.969 24.24 137.419 24.15 137.859L24.08 138.219C23.91 139.039 23.13 139.589 22.3 139.469L20.81 139.249C20.55 139.209 20.3 139.109 20.09 138.949L14.96 135.059C13.77 134.159 12.33 133.629 10.84 133.549L4.49997 133.219C3.99997 133.189 3.60995 132.779 3.60995 132.279C3.60995 131.909 3.82998 131.569 4.16998 131.419L5.67996 130.759C6.17996 130.539 6.53995 130.079 6.60995 129.529L6.66998 129.139C6.71998 128.819 6.63997 128.499 6.46997 128.229L5.92996 127.399C5.58996 126.869 5.58998 126.179 5.94998 125.649L12.92 115.359C13.55 114.429 13.42 113.169 12.61 112.389L12.12 111.919C11.41 111.229 10.25 111.359 9.69998 112.189L0.73996 125.749C0.56996 126.009 0.47998 126.309 0.47998 126.619V131.079C0.47998 132.699 1.28997 134.209 2.62997 135.109L5.59998 137.529C8.13998 139.599 11.01 141.239 14.1 142.299C15 142.609 18.37 143.819 18.76 143.819H25.99C26.49 143.819 26.97 143.579 27.26 143.169L70.83 82.4794C71.04 82.1894 71.35 81.9794 71.69 81.8894L74.77 81.0494C75.83 80.7594 76.28 79.5194 75.65 78.6194L73.21 75.1194C72.57 74.2394 71.26 74.2294 70.62 75.0994Z" fill="#FF2481"/>
<path d="M66.3002 57.5299L61.9802 52.5999C61.4602 52.0099 60.7102 51.6699 59.9302 51.6699L64.8402 58.7999C65.0302 59.0699 65.4102 59.0999 65.6402 58.8699L66.2702 58.2399C66.4702 58.0499 66.4802 57.7399 66.3002 57.5299Z" fill="#FF2481"/>
<path d="M117.44 115.96L68.8301 60.4098C68.6301 60.1798 68.2801 60.1698 68.0701 60.3798L67.1201 61.3298C66.9401 61.5098 66.9201 61.7898 67.0601 61.9998L105.19 117.36C106.34 118.98 108.35 119.77 110.3 119.36L115.85 119.42C117.65 119.44 118.62 117.32 117.44 115.96Z" fill="#FF2481"/>
<path d="M142.01 125.72C141.92 124.78 141.63 124.03 141.23 123.5L89.2599 55.3497L92.3299 50.6997C93.8399 48.4197 93.8199 45.4597 92.2799 43.2097C91.6199 42.2297 91.6699 40.9397 92.4099 40.0197C96.1899 35.2897 107.68 20.9197 112.93 14.3397C114.46 12.4297 114.3 9.67968 112.57 7.94968L110.09 5.46969C107.97 3.89969 105 4.26969 103.33 6.31969L80.6899 33.8497C79.5199 35.2797 77.8999 36.2697 76.0999 36.6797L76.0099 36.6997C74.4799 37.0397 72.8899 36.6497 71.6899 35.6397L71.6399 35.5897C70.1699 34.3497 68.3699 33.5897 66.4699 33.3997C64.6399 33.2197 62.4999 32.9697 62.0599 32.9197L62.0999 32.9097L44.9099 11.6797L37.4899 2.44968C37.3599 2.28968 37.1999 2.11968 37.0299 1.94968C37.0099 1.92968 36.9899 1.90968 36.9699 1.88968C36.6999 1.56968 36.3799 1.29968 36.0299 1.08968C36.0099 1.07968 35.9899 1.05969 35.9699 1.04969C35.9499 1.03969 35.9399 1.02969 35.9199 1.01969C34.6999 0.339689 33.1599 0.359678 31.9299 1.17968L27.8299 3.92968C27.6699 4.03968 27.5299 4.15968 27.3899 4.28968C26.2399 5.38968 26.0699 7.16969 27.0699 8.48969L29.9399 12.2597L31.2099 14.3097C31.3399 14.4997 31.4699 14.6797 31.5999 14.8697L45.9699 33.3297L48.4999 36.6597C48.9499 37.5197 48.9099 38.5697 48.3699 39.3997L47.4499 40.7897C46.4499 42.2997 46.4699 44.2697 47.4999 45.7697L52.7399 53.3997C53.6799 54.7697 53.6099 56.5897 52.5599 57.8697C46.5099 65.2897 26.6499 89.6297 20.9199 96.6497C20.0699 97.6997 20.2499 99.2397 21.3299 100.06L21.3699 100.09C22.2799 100.78 23.5599 100.63 24.2799 99.7597C30.5199 92.1097 57.4599 59.0997 57.4599 59.0997L57.4899 59.1297C58.0299 59.6997 58.9199 59.7297 59.4999 59.1997L59.5299 59.1697C60.2799 58.4897 60.3999 57.3497 59.7999 56.5297C58.0099 54.0597 54.3399 48.9797 52.2399 46.0797C51.3799 44.8997 51.6599 43.2397 52.8499 42.3997L56.5899 39.7497C58.6699 38.2697 61.3199 37.8397 63.7699 38.5597L63.8799 38.5897C66.8099 39.4597 69.3799 41.1897 71.2599 43.5597C83.9499 59.4897 134 122.29 134 122.29C134.27 122.63 133.99 123.14 133.55 123.08L128.34 121.85C127.59 121.67 126.83 121.56 126.06 121.52C124.04 121.42 120.71 121.37 119.74 121.36L109.22 121.27C107.32 121.25 105.55 120.34 104.43 118.8L84.5999 91.3397C83.8799 90.3397 82.4799 90.1097 81.4699 90.8297L81.4199 90.8597C80.3999 91.5897 80.1599 92.9997 80.8799 94.0197C85.2199 100.13 99.3399 120.08 107.98 132.3C109.71 134.74 112.14 137.75 114.82 139.08L115.3 139.29C116.92 140 118.64 140.48 120.4 140.57C122.33 140.66 123.95 140.32 125.87 139.31C125.89 139.3 125.92 139.29 125.94 139.27L138.33 132.12C140.71 130.88 142.26 128.37 142.01 125.72ZM55.3099 33.0297C54.9199 33.0997 54.5299 32.9197 54.2699 32.6297L36.7699 14.0597C35.7699 12.9997 34.9599 10.9497 34.9599 9.48969L32.6899 9.43969C31.6099 9.40969 30.5999 8.92969 29.8899 8.10969C29.4799 7.62969 29.5599 6.88968 30.0599 6.49968L32.9699 4.19968C33.8099 3.53968 35.0199 3.66969 35.6899 4.49969C39.6099 9.38968 51.9999 24.8497 56.3599 30.3497C57.1299 31.3397 56.5899 32.8097 55.3099 33.0297ZM84.5999 34.3797C88.8799 28.8097 101.04 13.1697 104.88 8.21969C105.54 7.37969 106.75 7.22969 107.6 7.87969L110.54 10.1297C111.05 10.5197 111.14 11.2497 110.73 11.7397C110.04 12.5697 109.03 13.0697 107.95 13.1097L105.68 13.1997C105.7 14.6497 104.92 16.7197 103.93 17.7897L86.7099 36.6197C86.4499 36.9097 86.0599 37.0897 85.6699 37.0297C84.3999 36.8297 83.8399 35.3697 84.5999 34.3797ZM88.0999 48.6897C87.4899 50.4797 85.1699 50.9497 83.9199 49.5297L77.2899 42.0497C76.6799 41.3597 77.0399 40.2597 77.9399 40.0697C79.9899 39.6297 82.1199 40.2397 83.6399 41.6797L87.2099 45.0897C88.1799 46.0197 88.5299 47.4197 88.0999 48.6897ZM135.51 129.09C135.15 130 134.28 130.6 133.3 130.6H129.52C127.62 130.6 125.76 131.21 124.23 132.33L120.84 134.81C120.04 135.4 119.02 135.62 118.04 135.41C116.77 135.14 116.18 133.67 116.91 132.6L120.8 126.88C121.88 125.3 123.81 124.54 125.67 124.97L134.41 126.98C135.34 127.21 135.86 128.2 135.51 129.09Z" fill="#FF2481"/>
</svg>
