<svg width="329" height="254" viewBox="0 0 329 254" fill="none" xmlns="http://www.w3.org/2000/svg">
<path d="M72.6099 212.45C75.3499 212.41 78.0799 211.66 80.0699 212.55C82.1199 213.47 82.2099 216.58 83.0899 218.76C85.0299 223.53 86.8899 228.33 89.1499 233.04C89.1499 226.85 89.2199 220.65 89.0999 214.47C89.0699 212.67 89.5999 212.27 91.3199 212.29C96.6299 212.36 96.6299 212.29 96.6299 217.59C96.6299 228.88 96.5899 240.17 96.6699 251.46C96.6799 253.19 96.2799 253.69 94.4999 253.66C88.8099 253.57 88.8099 253.65 86.6599 248.19C82.0099 236.36 77.3599 224.54 72.6099 212.45Z" fill="black"/>
<path d="M50.4801 226.29C50.0101 228.58 49.4801 230.86 49.1001 233.16C48.9101 234.3 48.4401 234.76 47.2901 234.6C46.7601 234.52 46.2001 234.59 45.6601 234.59C41.0901 234.59 41.1001 234.59 42.0001 230.21C43.0601 225.04 44.2101 219.87 45.1001 214.67C45.4401 212.72 46.1801 212.11 48.1001 212.29C50.1801 212.48 52.3001 212.41 54.4001 212.3C55.6101 212.24 56.0201 212.73 56.2401 213.81C58.1601 223.56 60.0601 233.32 62.1001 243.05C62.4301 244.62 61.7501 244.52 60.7201 244.51C56.6701 244.49 52.6301 244.54 48.5801 244.48C47.2901 244.46 46.6201 244.71 46.4401 246.18C46.1901 248.25 45.6101 250.29 45.2101 252.35C45.0901 252.99 45.0301 253.61 44.1701 253.61C42.2201 253.61 40.2801 253.61 38.3301 253.61C37.3201 253.61 37.4801 253 37.6201 252.34C38.5801 247.62 39.5701 242.9 40.4501 238.17C40.6901 236.9 41.4701 237.03 42.3201 237.03C45.3601 237.03 48.3901 236.97 51.4301 237.06C52.8701 237.1 53.3601 236.81 52.9701 235.25C52.2301 232.3 51.6901 229.29 51.0701 226.31C50.8601 226.3 50.6701 226.29 50.4801 226.29Z" fill="black"/>
<path d="M118.15 226.53C117.68 228.81 117.19 231.09 116.76 233.38C116.62 234.15 116.46 234.64 115.5 234.61C113.34 234.54 111.17 234.59 108.9 234.59C110.3 227.52 111.67 220.68 113 213.82C113.21 212.74 113.62 212.24 114.83 212.29C117.24 212.39 119.66 212.39 122.07 212.29C123.23 212.25 123.72 212.64 123.94 213.75C125.87 223.51 127.79 233.27 129.83 243C130.14 244.5 129.56 244.51 128.46 244.5C124.57 244.47 120.67 244.54 116.78 244.46C115.2 244.43 114.19 244.59 114.05 246.56C113.91 248.48 113.3 250.36 112.92 252.26C112.82 252.79 112.89 253.5 112.18 253.52C110 253.58 107.82 253.6 105.65 253.52C105 253.5 105.19 252.86 105.29 252.41C106.28 247.62 107.31 242.83 108.21 238.02C108.43 236.84 109.15 237 109.9 237C113.01 236.99 116.13 236.96 119.24 237.01C120.48 237.03 121.09 236.94 120.69 235.37C119.93 232.43 119.42 229.42 118.81 226.44C118.59 226.49 118.37 226.51 118.15 226.53Z" fill="black"/>
<path d="M287.79 233.03C287.79 226.81 287.84 220.59 287.75 214.38C287.73 212.79 288.11 212.26 289.79 212.27C295.28 212.31 295.29 212.24 295.29 217.67C295.28 228.95 295.2 240.24 295.27 251.52C295.28 253.34 294.74 253.68 293.05 253.66C287.38 253.58 287.38 253.65 285.3 248.36C280.85 237.02 276.43 225.67 271.93 214.35C271.32 212.82 271.3 212.26 273.25 212.28C279.26 212.33 279.26 212.25 281.46 217.92C283.42 222.96 285.38 228 287.34 233.04C287.51 233.04 287.65 233.04 287.79 233.03Z" fill="black"/>
<path d="M71.72 175.859C71.26 178.209 70.75 180.559 70.35 182.919C70.16 184.029 69.73 184.429 68.54 184.469C62.56 184.649 62.56 184.689 63.75 178.829C64.71 174.109 65.76 169.399 66.58 164.659C66.83 163.199 67.27 162.669 68.76 162.739C71.4 162.879 74.7 161.879 76.51 163.119C78.35 164.389 77.9 167.979 78.44 170.549C79.93 177.699 81.34 184.879 82.85 192.029C83.17 193.539 82.89 194.009 81.26 193.959C77.37 193.839 73.47 193.969 69.58 193.889C68.42 193.869 67.96 194.219 67.78 195.349C67.48 197.269 66.92 199.149 66.69 201.079C66.52 202.509 65.87 202.779 64.56 202.789C58.91 202.819 58.91 202.859 60.02 197.399C60.63 194.429 61.38 191.479 61.79 188.479C62.01 186.849 62.78 186.699 64.09 186.729C66.97 186.789 69.85 186.689 72.73 186.779C74.09 186.819 74.33 186.279 74.08 185.119C73.41 182.019 72.77 178.909 72.12 175.809C71.99 175.819 71.85 175.839 71.72 175.859Z" fill="black"/>
<path d="M217.98 227.3C219.7 222.95 221.45 218.64 223.08 214.29C223.6 212.89 224.2 212.04 225.88 212.29C227.75 212.58 230.39 211.44 231.34 212.77C232.13 213.88 230.39 216.12 229.72 217.83C227 224.84 224.15 231.81 221.47 238.83C220.92 240.26 220.35 240.9 218.7 240.84C214.84 240.7 214.85 240.81 213.4 237.12C210.39 229.47 207.4 221.81 204.32 214.19C203.68 212.61 203.9 212.27 205.61 212.27C211.66 212.27 211.65 212.22 213.85 217.91C215.02 220.94 216.26 223.94 217.49 226.95C217.54 227.09 217.73 227.14 217.98 227.3Z" fill="black"/>
<path d="M0.689941 212.34C3.19994 212.34 5.36994 212.4 7.52994 212.31C8.68994 212.26 8.92993 212.97 9.25993 213.8C10.7499 217.63 12.2599 221.46 13.7999 225.27C14.0799 225.96 14.1599 226.78 15.0499 227.33C16.8299 222.83 18.6299 218.41 20.3099 213.94C20.7599 212.73 21.31 212.22 22.64 212.3C24.63 212.42 26.6299 212.33 28.9299 212.33C26.2499 219.17 23.6899 225.71 21.1299 232.25C20.2199 234.56 19.2699 236.86 18.4299 239.19C18.0099 240.36 17.4299 241 16.0699 240.81C15.1499 240.68 14.1999 240.73 13.2699 240.8C12.2799 240.87 11.7699 240.54 11.3799 239.55C7.89994 230.6 4.36994 221.67 0.689941 212.34Z" fill="black"/>
<path d="M106.91 177.51C108.69 172.98 110.42 168.76 112 164.49C112.48 163.2 113.1 162.65 114.51 162.75C116.36 162.88 118.23 162.78 120.42 162.78C119.3 165.64 118.27 168.27 117.24 170.91C114.88 176.9 112.48 182.87 110.2 188.89C109.77 190.03 109.25 190.41 108.04 190.42C103.98 190.44 103.97 190.49 102.48 186.71C99.5699 179.36 96.7199 171.98 93.7399 164.66C93.0699 163.01 93.4699 162.75 95.0899 162.76C100.73 162.76 100.74 162.71 102.88 168.01C104.1 171.03 105.29 174.06 106.49 177.08C106.52 177.13 106.59 177.17 106.91 177.51Z" fill="black"/>
<path d="M265.17 202.55C264.92 202.65 264.85 202.7 264.78 202.71C257.81 203.19 257.82 203.19 256.09 196.54C255.46 194.13 254.79 191.74 254.21 189.32C254 188.45 253.71 187.82 252.7 187.99C251.02 188.27 250.95 187.25 251.06 186.04C251.1 185.65 251.07 185.26 251.07 184.87C251.07 181.1 251.07 181.07 254.7 180.76C256.05 180.64 256.64 179.98 256.64 178.67C256.63 176.65 256.57 174.62 256.66 172.6C256.74 170.66 255.87 169.78 254.01 170.07C251.53 170.46 250.9 169.47 251.01 167.08C251.21 162.77 251.07 162.76 255.49 162.76C259.93 162.76 263.9 166.71 263.9 171.13C263.9 173.7 263.81 176.27 263.92 178.84C264.02 181.25 263.94 183.49 261.65 184.99C260.63 185.66 261.05 186.62 261.28 187.52C262.57 192.5 263.85 197.46 265.17 202.55Z" fill="black"/>
<path d="M232.23 182.98C232.23 187.18 232.18 191.39 232.26 195.59C232.29 196.95 231.89 197.92 230.89 198.84C228.71 200.84 227.04 203.56 223.33 202.84C222.16 202.61 221.48 202.56 221.6 201.16C221.71 199.77 221.67 198.36 221.61 196.96C221.56 195.89 221.86 195.38 223.04 195.45C224.57 195.54 225.01 194.58 225.01 193.2C224.99 186.27 225 179.34 225.01 172.42C225.01 170.97 224.56 170 222.89 170.06C222.46 170.07 221.76 170.23 221.73 169.63C221.64 167.54 221.68 165.44 221.69 163.34C221.69 163 222.01 162.78 222.33 162.8C224.48 162.94 226.54 162.4 228.56 164.31C231.32 166.92 232.72 169.56 232.29 173.42C231.95 176.57 232.23 179.79 232.23 182.98Z" fill="black"/>
<path d="M208.65 182.939C208.65 178.739 208.76 174.529 208.6 170.329C208.53 168.549 209.24 167.449 210.42 166.329C212.48 164.389 214.17 161.799 217.65 162.759C217.87 162.819 218.19 162.679 218.34 162.789C220.34 164.319 218.83 166.449 219.23 168.269C219.38 168.959 219.69 170.159 218.2 170.049C216.25 169.909 215.86 171.039 215.87 172.669C215.9 179.439 215.89 186.219 215.87 192.989C215.87 194.399 216.17 195.539 217.88 195.439C219.09 195.369 219.35 195.949 219.27 196.979C219.22 197.599 219.36 198.239 219.24 198.839C218.99 200.129 220.08 202.249 218.62 202.569C216.62 203.009 214.43 203.219 212.37 201.349C209.47 198.719 208.18 195.929 208.59 192.029C208.9 189.039 208.65 185.979 208.65 182.939Z" fill="black"/>
<path d="M14.29 186.41C13.43 186.41 12.55 186.26 11.73 186.43C7.14995 187.43 4.13995 185.08 1.42995 181.86C0.86995 181.19 0.709958 180.56 0.719958 179.76C0.739958 177.58 0.95995 175.38 0.67995 173.24C0.17995 169.5 1.29996 166.61 4.37996 164.44C5.11996 163.92 5.51996 162.98 6.54996 162.78C9.99996 162.1 10.72 162.67 10.72 166.16C10.72 167.09 10.72 168.03 10.72 168.96C10.72 169.52 10.73 170.05 9.90996 170.05C8.21996 170.05 7.90995 171.14 7.92995 172.55C8.01995 180.08 7.05996 179.39 14.24 178.99C18.73 178.74 20.42 181.96 22.82 184.35C23.72 185.24 23.39 186.5 21.53 186.42C19.11 186.33 16.7 186.41 14.29 186.41Z" fill="black"/>
<path d="M158.87 186.41C157.78 186.41 156.67 186.28 155.61 186.44C152.08 186.97 149.41 185.83 147.11 183.03C145.9 181.55 145.04 180.3 145.23 178.34C145.39 176.72 145.45 175.05 145.22 173.45C144.66 169.63 145.83 166.65 148.99 164.42C149.68 163.94 150.07 163.07 150.95 162.82C154.13 161.9 155.37 162.84 155.37 166.16C155.37 167.09 155.37 168.03 155.37 168.96C155.37 169.53 155.35 170.06 154.55 170.06C152.65 170.05 152.55 171.33 152.57 172.77C152.67 180.02 151.64 179.41 158.84 179C163.34 178.75 164.98 182.02 167.4 184.38C168.25 185.2 168.03 186.55 166.1 186.45C163.7 186.32 161.29 186.41 158.87 186.41Z" fill="black"/>
<path d="M319.24 186.409C317.99 186.409 316.73 186.249 315.51 186.439C312.2 186.949 309.83 185.739 307.63 183.249C306.18 181.619 305.3 180.159 305.53 177.959C305.69 176.419 305.75 174.819 305.52 173.299C304.97 169.569 306.34 166.909 309.11 164.379C310.89 162.749 312.63 162.759 314.62 162.739C315.45 162.729 315.68 163.159 315.67 163.909C315.65 165.619 315.66 167.329 315.67 169.049C315.68 169.699 315.46 170.049 314.74 170.059C313.18 170.069 312.85 171.069 312.87 172.409C312.99 180.129 311.87 179.349 319.28 178.979C323.8 178.759 325.33 182.149 327.78 184.469C328.42 185.079 328.36 186.549 326.49 186.439C324.07 186.309 321.65 186.409 319.24 186.409Z" fill="black"/>
<path d="M199.38 175.859C199.38 176.789 199.25 177.749 199.4 178.659C199.96 182.129 198.53 184.519 196.08 186.979C193.27 189.809 190.04 188.939 187.19 188.509C185.65 188.269 186.77 185.239 186.57 183.489C186.5 182.849 186.09 181.849 187.25 181.569C187.47 181.509 187.72 181.559 187.95 181.539C192.1 181.249 192.1 181.249 192.1 177.019C192.1 175.539 192.04 174.059 192.11 172.579C192.19 170.819 191.52 170.029 189.67 170.029C186.53 170.039 186.53 169.969 186.53 166.819C186.53 162.769 186.53 162.769 190.54 162.779C195.62 162.779 199.38 166.559 199.38 171.659C199.38 173.059 199.38 174.459 199.38 175.859Z" fill="black"/>
<path d="M320.15 237.979C320.15 242.569 320.08 247.159 320.18 251.749C320.21 253.309 319.71 253.669 318.21 253.659C312.63 253.649 312.63 253.709 312.63 248.119C312.63 240.259 312.67 232.409 312.59 224.549C312.57 222.839 312.86 222.119 314.82 222.169C320.13 222.289 320.14 222.189 320.14 227.479C320.15 230.979 320.15 234.479 320.15 237.979Z" fill="black"/>
<path d="M156.43 202.77C156.35 202.77 156.27 202.76 156.2 202.77C151.6 203.8 148.63 201.34 145.94 198.11C144.76 196.69 145.35 195.14 145.31 193.65C145.21 189.9 145.28 189.9 149.09 189.89C149.63 189.89 150.19 189.95 150.72 189.87C152.32 189.64 152.69 190.37 152.63 191.85C152.58 193.07 151.98 194.91 153.7 195.26C155.69 195.67 157.94 196.04 159.82 194.97C161.15 194.21 160.53 192.51 160.44 191.27C160.31 189.33 160.73 188.6 162.91 188.69C167.7 188.89 167.31 188.79 167.82 193.51C168.33 198.19 165.19 200.34 162.35 202.41C161.04 203.37 158.45 202.57 156.44 202.57C156.43 202.65 156.43 202.71 156.43 202.77Z" fill="black"/>
<path d="M317 202.77C316.56 202.77 316.48 202.76 316.4 202.77C311.77 203.84 308.86 201.23 306.18 198.05C305 196.66 305.63 195.07 305.59 193.59C305.48 189.88 305.55 189.88 309.16 189.88C309.47 189.88 309.79 189.93 310.09 189.87C312.29 189.47 313.27 190.25 312.88 192.58C312.49 194.89 313.68 195.71 315.85 195.46C316 195.44 316.16 195.46 316.32 195.46C320.71 195.46 320.82 195.46 320.68 190.98C320.62 189.08 321.25 188.7 323.01 188.73C327.96 188.83 327.56 188.8 328.08 193.62C328.57 198.2 325.49 200.25 322.79 202.4C321.24 203.63 318.71 202.57 317 202.77Z" fill="black"/>
<path d="M12.2698 202.769C11.7598 202.769 11.5898 202.739 11.4498 202.769C6.76975 203.909 3.94975 201.079 1.25975 197.989C0.199748 196.779 0.799758 195.299 0.769758 193.959C0.689758 189.899 0.739752 189.899 4.66975 189.899C7.83975 189.899 7.90976 189.899 7.90976 193.029C7.90976 194.829 8.63975 195.629 10.4297 195.479C10.6597 195.459 10.8998 195.479 11.1298 195.479C16.1398 195.489 15.9598 195.879 15.7798 190.869C15.7098 189.039 16.2998 188.699 17.9998 188.729C23.1298 188.819 22.7397 188.779 23.2397 193.709C23.7097 198.319 20.4298 200.219 17.8198 202.429C16.4098 203.619 13.9098 202.589 12.2698 202.769Z" fill="black"/>
<path d="M32.39 177.869C32.39 173.439 32.45 169.009 32.36 164.579C32.33 163.159 32.71 162.749 34.17 162.739C39.54 162.709 39.54 162.649 39.54 167.959C39.54 175.729 39.5 183.499 39.58 191.269C39.6 192.799 39.19 193.209 37.66 193.199C32.4 193.169 32.4 193.229 32.4 187.889C32.39 184.549 32.39 181.209 32.39 177.869Z" fill="black"/>
<path d="M164.28 238.809C164.28 240.129 164.1 241.479 164.31 242.769C164.96 246.699 163.55 249.669 160.4 251.959C159.55 252.579 159.07 253.569 157.76 253.649C153.49 253.909 153.5 253.969 153.5 249.609C153.5 248.909 153.54 248.209 153.49 247.509C153.42 246.579 153.62 246.069 154.73 246.099C156.3 246.139 156.89 245.179 156.85 243.689C156.81 242.369 156.77 241.039 156.86 239.729C156.99 237.779 156.95 236.109 154.2 236.719C153.44 236.889 153.03 236.489 153.1 235.669C153.11 235.519 153.11 235.359 153.1 235.199C152.84 229.229 152.84 229.229 158.85 229.229C164.27 229.229 164.27 229.229 164.27 234.609C164.28 236.009 164.28 237.409 164.28 238.809Z" fill="black"/>
<path d="M281.49 187.38C281.49 182.94 281.54 178.51 281.46 174.07C281.43 172.74 281.81 172.4 283.13 172.39C288.69 172.32 288.69 172.27 288.69 177.85C288.69 185.56 288.66 193.26 288.72 200.97C288.73 202.34 288.46 202.82 286.96 202.82C281.51 202.83 281.51 202.89 281.5 197.42C281.49 194.07 281.49 190.72 281.49 187.38Z" fill="black"/>
<path d="M151.12 215.999C151.12 216.699 151.09 217.399 151.13 218.099C151.2 219.139 151.12 219.899 149.71 219.839C148.18 219.769 147.81 220.819 147.81 222.179C147.84 226.389 147.75 230.599 147.86 234.799C147.9 236.359 147.41 236.759 145.89 236.759C140.33 236.759 140.33 236.809 140.33 231.219C140.33 227.479 140.39 223.739 140.3 219.999C140.26 218.489 140.57 217.309 141.79 216.329C142.76 215.549 143.68 214.669 144.43 213.689C146.11 211.509 148.41 212.529 150.48 212.389C151.09 212.349 151.11 212.949 151.11 213.429C151.12 214.289 151.12 215.149 151.12 215.999Z" fill="black"/>
<path d="M231.79 220.4C231.79 231.05 231.78 241.69 231.81 252.34C231.81 253.38 231.39 253.58 230.43 253.64C224.3 254.01 224.55 254.02 224.23 247.97C223.88 241.38 224.94 235.21 227.84 229.28C229.26 226.37 230.23 223.24 231.4 220.22C231.53 220.28 231.66 220.34 231.79 220.4Z" fill="black"/>
<path d="M204.14 220.22C206.47 226.18 209.45 231.99 210.93 238.16C212.03 242.73 211.18 247.76 211.21 252.58C211.22 253.4 210.83 253.65 210.07 253.63C208.59 253.59 207.1 253.52 205.64 253.65C204.09 253.78 203.66 253.23 203.69 251.69C203.78 245.93 203.73 240.17 203.73 234.41C203.73 229.74 203.73 225.07 203.73 220.4C203.86 220.34 204 220.28 204.14 220.22Z" fill="black"/>
<path d="M28.84 220.399C28.84 227.519 28.84 234.649 28.84 241.769C28.84 245.199 28.8 248.619 28.88 252.049C28.91 253.259 28.54 253.599 27.31 253.639C21.38 253.799 21.63 253.829 21.31 247.989C20.96 241.479 21.94 235.369 24.81 229.489C26.23 226.569 27.2301 223.439 28.4201 220.409C28.5601 220.409 28.7 220.399 28.84 220.399Z" fill="black"/>
<path d="M181.29 224.56C181.29 228.06 181.24 231.56 181.32 235.05C181.35 236.37 180.95 236.73 179.62 236.76C173.8 236.87 173.8 236.92 173.8 231.25C173.8 225.58 173.86 219.9 173.76 214.23C173.73 212.65 174.25 212.3 175.74 212.3C181.3 212.29 181.3 212.24 181.3 217.81C181.29 220.05 181.29 222.3 181.29 224.56Z" fill="black"/>
<path d="M184.24 175.929C184.24 179.659 184.18 183.399 184.27 187.129C184.3 188.469 183.88 188.799 182.56 188.819C176.97 188.899 176.97 188.949 176.97 183.379C176.97 177.159 177.02 170.939 176.94 164.719C176.92 163.219 177.28 162.739 178.85 162.739C184.24 162.749 184.24 162.679 184.24 167.999C184.25 170.639 184.24 173.279 184.24 175.929Z" fill="black"/>
<path d="M248.79 175.46C248.79 179.04 248.71 182.63 248.83 186.2C248.88 187.68 248.4 187.999 247 188.019C241.5 188.069 241.5 188.12 241.5 182.69C241.5 176.69 241.55 170.7 241.46 164.7C241.44 163.18 241.83 162.73 243.38 162.73C248.79 162.73 248.79 162.67 248.78 167.99C248.78 170.48 248.79 172.97 248.79 175.46Z" fill="black"/>
<path d="M1.20981 220.26C2.91981 224.63 4.47981 229.06 6.37981 233.34C7.79981 236.54 8.4498 239.76 8.2498 243.25C8.0898 246.04 8.1098 248.85 8.2598 251.64C8.3498 253.35 7.72981 253.66 6.15981 253.65C0.799805 253.6 0.799805 253.66 0.799805 248.38C0.799805 239.06 0.799805 229.74 0.799805 220.41C0.929805 220.36 1.06981 220.31 1.20981 220.26Z" fill="black"/>
<path d="M73.0997 220.279C75.3897 226.099 77.6697 231.919 79.9597 237.729C80.3797 238.789 80.1697 239.879 80.1697 240.959C80.1997 244.609 80.1297 248.269 80.2097 251.919C80.2397 253.239 79.8497 253.609 78.5197 253.629C72.7197 253.739 72.7197 253.779 72.7197 248.119C72.7197 238.869 72.7197 229.619 72.7197 220.369C72.8497 220.349 72.9697 220.319 73.0997 220.279Z" fill="black"/>
<path d="M271.74 220.26C274.05 226.14 276.38 232.02 278.66 237.91C278.87 238.46 278.83 239.13 278.83 239.75C278.84 243.64 278.71 247.53 278.89 251.41C278.98 253.37 278.26 253.69 276.52 253.66C271.38 253.57 271.38 253.64 271.38 248.44C271.38 239.81 271.38 231.18 271.38 222.55C271.38 221.81 271.38 221.07 271.38 220.33C271.5 220.3 271.62 220.28 271.74 220.26Z" fill="black"/>
<path d="M316.26 219.83C312.99 219.83 309.72 219.78 306.46 219.85C305.27 219.87 304.88 219.56 304.84 218.3C304.64 212.31 304.6 212.31 310.64 212.31C315.85 212.31 321.07 212.35 326.28 212.28C327.59 212.26 327.97 212.62 327.99 213.96C328.09 219.83 328.14 219.82 322.33 219.82C320.3 219.83 318.28 219.83 316.26 219.83Z" fill="black"/>
<path d="M241.46 224.309C241.46 220.889 241.51 217.469 241.44 214.049C241.41 212.809 241.66 212.309 243.07 212.289C248.92 212.189 248.92 212.139 248.92 217.979C248.92 223.659 248.89 229.329 248.95 235.009C248.96 236.269 248.68 236.739 247.3 236.779C241.47 236.929 241.47 236.979 241.47 231.079C241.46 228.819 241.46 226.559 241.46 224.309Z" fill="black"/>
<path d="M120.38 170.52C120.38 180.7 120.36 190.88 120.4 201.06C120.41 202.32 120.13 202.78 118.76 202.8C113.11 202.9 113.36 202.94 113.05 197.37C112.68 190.94 113.73 184.92 116.55 179.12C117.92 176.3 118.89 173.28 120.04 170.35C120.15 170.41 120.27 170.47 120.38 170.52Z" fill="black"/>
<path d="M93.64 170.6C95.76 176 97.86 181.41 100.01 186.8C100.7 188.54 100.36 190.34 100.4 192.11C100.46 195.14 100.37 198.18 100.44 201.21C100.46 202.37 100.2 203.01 98.91 202.78C98.83 202.77 98.75 202.78 98.68 202.78C93.21 202.89 93.21 202.89 93.21 197.43C93.21 188.5 93.21 179.57 93.21 170.64C93.35 170.62 93.5 170.61 93.64 170.6Z" fill="black"/>
<path d="M285.13 170.06C281.87 170.06 278.61 170.02 275.35 170.08C274.28 170.1 273.9 169.82 273.84 168.67C273.51 162.77 273.47 162.77 279.26 162.77C284.38 162.77 289.51 162.81 294.63 162.74C295.95 162.72 296.32 163.1 296.34 164.42C296.45 170.06 296.49 170.06 290.95 170.06C289.01 170.06 287.07 170.06 285.13 170.06Z" fill="black"/>
<path d="M140.34 244.349C140.34 239.129 140.35 239.309 145.05 239.059C147.57 238.929 148.05 239.809 147.87 242.029C147.71 243.959 147.36 245.739 150.48 246.429C152.12 246.789 150.81 250.009 151.09 251.909C151.18 252.509 151.42 253.559 150.38 253.549C148.23 253.529 145.81 254.399 144.23 252.009C144.02 251.689 143.72 251.419 143.41 251.179C140.97 249.299 139.48 247.029 140.34 244.349Z" fill="black"/>
<path d="M173.79 246.09C173.79 244.3 173.86 242.5 173.76 240.72C173.7 239.52 174.05 239.14 175.29 239.09C181.28 238.85 181.28 238.81 181.28 244.85C181.28 247.26 181.22 249.68 181.3 252.09C181.34 253.34 180.88 253.61 179.69 253.64C173.79 253.78 173.79 253.82 173.79 247.96C173.79 247.34 173.79 246.71 173.79 246.09Z" fill="black"/>
<path d="M164.28 221.69C164.28 225.62 164.28 225.62 160.45 225.62C159.75 225.62 159.04 225.55 158.36 225.63C157.08 225.79 156.8 225.21 156.83 224.04C156.89 222 157.32 220.04 154.03 219.52C152.77 219.32 153.67 216.21 153.53 214.43C153.48 213.76 153.04 212.47 154.01 212.44C155.99 212.38 158.21 211.48 159.88 213.43C160.38 214.02 160.97 214.53 161.52 215.08C164.28 217.85 164.28 217.85 164.28 221.69Z" fill="black"/>
<path d="M248.92 246.3C248.92 247 248.96 247.7 248.91 248.4C248.78 250.08 249.68 252.65 248.53 253.23C246.84 254.08 244.46 253.54 242.37 253.61C241.41 253.64 241.46 252.99 241.46 252.35C241.46 248.38 241.49 244.41 241.44 240.44C241.43 239.45 241.68 238.96 242.73 239.11C242.81 239.12 242.89 239.11 242.96 239.11C244.89 239.23 247.95 238.31 248.51 239.44C249.43 241.31 248.76 243.96 248.76 246.29C248.82 246.3 248.87 246.3 248.92 246.3Z" fill="black"/>
<path d="M167.7 171.379C167.7 175.649 167.7 175.649 163.81 175.649C163.19 175.649 162.56 175.599 161.95 175.659C160.88 175.769 160.46 175.439 160.45 174.279C160.44 172.429 161.28 169.989 157.97 169.909C157.58 169.899 157.7 169.259 157.7 168.899C157.68 167.969 157.58 167.019 157.72 166.109C157.9 164.999 156.88 163.199 158.4 162.899C160.05 162.579 162.13 162.059 163.54 163.949C164 164.569 164.57 165.129 165.18 165.589C167.27 167.179 168.32 169.159 167.7 171.379Z" fill="black"/>
<path d="M327.95 171.799C327.95 175.649 327.95 175.649 324.09 175.649C323.55 175.649 322.99 175.579 322.46 175.659C320.96 175.899 320.63 175.209 320.68 173.829C320.74 172.149 321.29 170.039 318.4 169.979C317.79 169.969 317.94 169.279 317.93 168.849C317.91 167.999 317.84 167.139 317.94 166.299C318.08 165.139 317.26 163.259 318.46 162.959C320.25 162.509 322.48 162.029 323.97 164.099C324.33 164.599 324.83 164.979 325.27 165.419C327.95 168.089 327.95 168.089 327.95 171.799Z" fill="black"/>
<path d="M23.12 171.36C23.12 175.65 23.12 175.65 19.22 175.65C18.68 175.65 18.12 175.58 17.59 175.66C16.08 175.89 15.74 175.2 15.79 173.81C15.85 172.12 16.4 170.01 13.51 169.96C12.91 169.95 13.05 169.25 13.04 168.81C13.02 167.95 12.93 167.08 13.06 166.25C13.24 165.11 12.28 163.29 13.69 162.96C15.43 162.55 17.58 162.09 19.04 164.05C19.45 164.61 19.97 165.11 20.52 165.53C22.6 167.12 23.73 169.08 23.12 171.36Z" fill="black"/>
<path d="M241.49 196.58C241.49 196.27 241.49 195.96 241.49 195.65C241.49 189.81 241.49 189.84 247.42 190.26C248.39 190.33 248.81 190.56 248.8 191.59C248.76 194.86 248.76 198.13 248.8 201.39C248.81 202.34 248.59 202.91 247.51 202.77C247.43 202.76 247.35 202.77 247.28 202.77C241.49 203.06 241.49 203.06 241.49 196.58Z" fill="black"/>
<path d="M184.24 196.989C184.24 197.069 184.24 197.149 184.24 197.219C184.24 203.229 184.24 203.199 178.27 202.799C177.24 202.729 176.95 202.429 176.96 201.439C177.01 198.409 177.03 195.369 176.96 192.339C176.92 190.489 178.36 190.969 179.04 191.189C180.75 191.739 183.24 189.539 184.15 192.339C184.62 193.749 184.24 195.429 184.24 196.989Z" fill="black"/>
<path d="M188.95 219.819C183.63 219.819 183.7 219.819 183.63 214.519C183.61 212.819 183.98 212.149 185.8 212.289C187.96 212.449 190.15 212.419 192.32 212.299C193.8 212.219 194.32 212.759 194.1 214.159C194.08 214.309 194.1 214.469 194.1 214.629C194.13 219.819 194.13 219.819 188.95 219.819Z" fill="black"/>
<path d="M188.87 253.61C183.67 253.61 183.78 253.61 183.62 248.44C183.55 246.39 184.24 245.85 186.1 246.1C187.02 246.22 187.97 246.07 188.89 246.13C190.58 246.23 193.19 245.38 193.75 246.49C194.59 248.18 194.05 250.56 194.09 252.65C194.11 253.53 193.52 253.62 192.84 253.61C191.52 253.61 190.2 253.61 188.87 253.61Z" fill="black"/>
<path d="M256.45 212.319C261.69 212.319 261.62 212.319 261.7 217.669C261.73 219.349 261.41 220.039 259.57 219.869C257.49 219.689 255.36 219.709 253.27 219.859C251.56 219.979 251.05 219.309 251.3 217.759C251.31 217.679 251.3 217.599 251.3 217.529C251.29 212.319 251.29 212.319 256.45 212.319Z" fill="black"/>
<path d="M256.54 253.62C251.28 253.62 251.36 253.62 251.27 248.27C251.24 246.56 251.62 245.93 253.42 246.08C255.51 246.25 257.63 246.25 259.71 246.08C261.44 245.94 261.94 246.6 261.67 248.16C261.66 248.24 261.67 248.32 261.67 248.39C261.67 253.62 261.67 253.62 256.54 253.62Z" fill="black"/>
<path d="M46.3899 195.479C50.7599 195.469 50.6099 195.479 50.8199 199.819C50.9299 202.219 50.2799 203.239 47.8299 202.779C47.6799 202.749 47.5199 202.779 47.3599 202.779C41.2899 202.779 41.3099 202.779 41.8899 196.719C41.9699 195.839 42.2099 195.449 43.1099 195.489C44.2099 195.509 45.2999 195.479 46.3899 195.479Z" fill="black"/>
<path d="M183.67 232.98C183.67 229.22 183.67 229.22 187.45 229.22C190.79 229.22 190.79 229.22 190.79 232.72C190.79 236.73 190.79 236.73 187.01 236.72C183.67 236.72 183.67 236.72 183.67 232.98Z" fill="black"/>
<path d="M258.37 233.159C258.36 236.729 258.36 236.729 254.89 236.729C254.27 236.729 253.64 236.679 253.03 236.739C251.78 236.869 251.09 236.509 251.3 235.109C251.37 234.649 251.31 234.179 251.31 233.709C251.31 229.209 251.31 229.319 255.74 229.159C257.81 229.089 258.73 229.609 258.39 231.759C258.31 232.209 258.37 232.689 258.37 233.159Z" fill="black"/>
<path d="M32.3999 199.15C32.3999 195.47 32.3999 195.47 35.7799 195.47C39.5399 195.47 39.5399 195.47 39.5399 200.16C39.5399 202.76 39.5199 202.54 34.8899 202.83C31.4099 203.06 32.5599 200.81 32.3999 199.15Z" fill="black"/>
<path d="M126.96 246.899C130.56 246.909 130.56 246.909 131.34 250.569C131.98 253.609 131.98 253.609 128.8 253.609C124.17 253.609 123.35 252.759 123.19 247.969C123.16 247.129 123.37 246.849 124.18 246.889C125.1 246.929 126.03 246.899 126.96 246.899Z" fill="black"/>
<path d="M59.1702 246.9C62.8702 246.9 62.8702 246.9 63.6102 250.5C64.2502 253.61 64.2502 253.61 61.1702 253.61C56.6902 253.61 56.7902 253.59 55.7002 249.22C55.2302 247.34 55.5502 246.6 57.5402 246.89C58.0702 246.96 58.6202 246.9 59.1702 246.9Z" fill="black"/>
<path d="M79.9398 196.29C83.6998 196.29 83.4898 196.35 84.4798 200.12C85.1498 202.66 84.3098 202.88 82.1398 202.8C77.6198 202.65 77.6898 202.74 76.6498 198.34C76.2598 196.7 76.5298 196.02 78.2998 196.27C78.8398 196.36 79.3998 196.29 79.9398 196.29Z" fill="black"/>
<mask id="mask0_3582_25288" style="mask-type:luminance" maskUnits="userSpaceOnUse" x="148" y="104" width="34" height="34">
<path d="M164.79 137.429C174.013 137.429 181.49 129.952 181.49 120.729C181.49 111.506 174.013 104.029 164.79 104.029C155.567 104.029 148.09 111.506 148.09 120.729C148.09 129.952 155.567 137.429 164.79 137.429Z" fill="white"/>
</mask>
<g mask="url(#mask0_3582_25288)">
<path d="M179.72 129.12C188.943 129.12 196.42 121.643 196.42 112.42C196.42 103.197 188.943 95.7197 179.72 95.7197C170.496 95.7197 163.02 103.197 163.02 112.42C163.02 121.643 170.496 129.12 179.72 129.12Z" stroke="#FF2481" stroke-width="4" stroke-miterlimit="10"/>
<path d="M179.719 135.24C192.323 135.24 202.539 125.023 202.539 112.42C202.539 99.8165 192.323 89.5996 179.719 89.5996C167.116 89.5996 156.899 99.8165 156.899 112.42C156.899 125.023 167.116 135.24 179.719 135.24Z" stroke="#FF2481" stroke-width="4" stroke-miterlimit="10"/>
<path d="M174.44 138.259C187.043 138.259 197.26 128.042 197.26 115.439C197.26 102.836 187.043 92.6191 174.44 92.6191C161.836 92.6191 151.62 102.836 151.62 115.439C151.62 128.042 161.836 138.259 174.44 138.259Z" stroke="#FF2481" stroke-width="4" stroke-miterlimit="10"/>
</g>
<path d="M164.79 137.429C174.013 137.429 181.49 129.952 181.49 120.729C181.49 111.506 174.013 104.029 164.79 104.029C155.567 104.029 148.09 111.506 148.09 120.729C148.09 129.952 155.567 137.429 164.79 137.429Z" stroke="#FF2481" stroke-width="2" stroke-miterlimit="10"/>
<path d="M153.74 62.8599L169.73 85.5699C170.61 86.8099 171.69 86.5999 173.13 86.1099C173.71 85.4999 173.78 84.5699 173.3 83.8899L157.44 61.1799C156.7 60.1199 155.24 59.8399 154.16 60.5599C153.4 61.0699 153.21 62.1099 153.74 62.8599Z" fill="#FF2481"/>
<path d="M154.33 79.2697C155.53 80.4697 157.53 80.2997 158.51 78.9197L163.82 71.4197L163.2 70.4397C162.67 69.6797 161.98 69.1997 161.36 69.8997L154.29 77.7497C153.9 78.1797 153.92 78.8497 154.33 79.2697Z" fill="#FF2481"/>
<path d="M149.97 82.5394L116.17 120.069C115.46 120.859 115.99 122.119 117.05 122.169L122.78 122.429C125.74 122.569 128.57 121.179 130.29 118.759L153.79 85.5894C154.48 84.6194 154.37 83.2894 153.52 82.4494C152.53 81.4494 150.91 81.4994 149.97 82.5394Z" fill="#FF2481"/>
<path d="M164.62 75.0994L128.2 124.549C127.87 124.999 127.32 125.239 126.76 125.179L109.62 123.379C109.29 123.349 108.95 123.419 108.67 123.579L102.85 126.929C102.17 127.319 101.97 128.199 102.42 128.839C102.75 129.319 103.36 129.529 103.92 129.359L109.92 127.489C110.57 127.289 111.27 127.519 111.67 128.069L117.88 136.609C118.14 136.969 118.24 137.419 118.15 137.859L118.08 138.219C117.91 139.039 117.13 139.589 116.3 139.469L114.81 139.249C114.55 139.209 114.3 139.109 114.09 138.949L108.96 135.059C107.77 134.159 106.33 133.629 104.84 133.549L98.5 133.219C98 133.189 97.61 132.779 97.61 132.279C97.61 131.909 97.83 131.569 98.17 131.419L99.68 130.759C100.18 130.539 100.54 130.079 100.61 129.529L100.67 129.139C100.72 128.819 100.64 128.499 100.47 128.229L99.93 127.399C99.59 126.869 99.59 126.179 99.95 125.649L106.92 115.359C107.55 114.429 107.42 113.169 106.61 112.389L106.12 111.919C105.41 111.229 104.25 111.359 103.7 112.189L94.74 125.749C94.57 126.009 94.48 126.309 94.48 126.619V131.079C94.48 132.699 95.29 134.209 96.63 135.109L99.6 137.529C102.14 139.599 105.01 141.239 108.1 142.299C109 142.609 112.37 143.819 112.76 143.819H119.99C120.49 143.819 120.97 143.579 121.26 143.169L164.83 82.4794C165.04 82.1894 165.35 81.9794 165.69 81.8894L168.77 81.0494C169.83 80.7594 170.28 79.5194 169.65 78.6194L167.21 75.1194C166.57 74.2394 165.26 74.2294 164.62 75.0994Z" fill="#FF2481"/>
<path d="M160.3 57.5299L155.98 52.5999C155.46 52.0099 154.71 51.6699 153.93 51.6699L158.84 58.7999C159.03 59.0699 159.41 59.0999 159.64 58.8699L160.27 58.2399C160.47 58.0499 160.48 57.7399 160.3 57.5299Z" fill="#FF2481"/>
<path d="M211.44 115.96L162.83 60.4098C162.63 60.1798 162.28 60.1698 162.07 60.3798L161.12 61.3298C160.94 61.5098 160.92 61.7898 161.06 61.9998L199.19 117.36C200.34 118.98 202.35 119.77 204.3 119.36L209.85 119.42C211.65 119.44 212.62 117.32 211.44 115.96Z" fill="#FF2481"/>
<path d="M236.01 125.72C235.92 124.78 235.63 124.03 235.23 123.5L183.26 55.3497L186.33 50.6997C187.84 48.4197 187.82 45.4597 186.28 43.2097C185.62 42.2297 185.67 40.9397 186.41 40.0197C190.19 35.2897 201.68 20.9197 206.93 14.3397C208.46 12.4297 208.3 9.67968 206.57 7.94968L204.09 5.46969C201.97 3.89969 199 4.26969 197.33 6.31969L174.69 33.8497C173.52 35.2797 171.9 36.2697 170.1 36.6797L170.01 36.6997C168.48 37.0397 166.89 36.6497 165.69 35.6397L165.64 35.5897C164.17 34.3497 162.37 33.5897 160.47 33.3997C158.64 33.2197 156.5 32.9697 156.06 32.9197L156.1 32.9097L138.91 11.6797L131.49 2.44968C131.36 2.28968 131.2 2.11968 131.03 1.94968C131.01 1.92968 130.99 1.90968 130.97 1.88968C130.7 1.56968 130.38 1.29968 130.03 1.08968C130.01 1.07968 129.99 1.05969 129.97 1.04969C129.95 1.03969 129.94 1.02969 129.92 1.01969C128.7 0.339689 127.16 0.359678 125.93 1.17968L121.83 3.92968C121.67 4.03968 121.53 4.15968 121.39 4.28968C120.24 5.38968 120.07 7.16969 121.07 8.48969L123.94 12.2597L125.21 14.3097C125.34 14.4997 125.47 14.6797 125.6 14.8697L139.97 33.3297L142.5 36.6597C142.95 37.5197 142.91 38.5697 142.37 39.3997L141.45 40.7897C140.45 42.2997 140.47 44.2697 141.5 45.7697L146.74 53.3997C147.68 54.7697 147.61 56.5897 146.56 57.8697C140.51 65.2897 120.65 89.6297 114.92 96.6497C114.07 97.6997 114.25 99.2397 115.33 100.06L115.37 100.09C116.28 100.78 117.56 100.63 118.28 99.7597C124.52 92.1097 151.46 59.0997 151.46 59.0997L151.49 59.1297C152.03 59.6997 152.92 59.7297 153.5 59.1997L153.53 59.1697C154.28 58.4897 154.4 57.3497 153.8 56.5297C152.01 54.0597 148.34 48.9797 146.24 46.0797C145.38 44.8997 145.66 43.2397 146.85 42.3997L150.59 39.7497C152.67 38.2697 155.32 37.8397 157.77 38.5597L157.88 38.5897C160.81 39.4597 163.38 41.1897 165.26 43.5597C177.95 59.4897 228 122.29 228 122.29C228.27 122.63 227.99 123.14 227.55 123.08L222.34 121.85C221.59 121.67 220.83 121.56 220.06 121.52C218.04 121.42 214.71 121.37 213.74 121.36L203.22 121.27C201.32 121.25 199.55 120.34 198.43 118.8L178.6 91.3397C177.88 90.3397 176.48 90.1097 175.47 90.8297L175.42 90.8597C174.4 91.5897 174.16 92.9997 174.88 94.0197C179.22 100.13 193.34 120.08 201.98 132.3C203.71 134.74 206.14 137.75 208.82 139.08L209.3 139.29C210.92 140 212.64 140.48 214.4 140.57C216.33 140.66 217.95 140.32 219.87 139.31C219.89 139.3 219.92 139.29 219.94 139.27L232.33 132.12C234.71 130.88 236.26 128.37 236.01 125.72ZM149.31 33.0297C148.92 33.0997 148.53 32.9197 148.27 32.6297L130.77 14.0597C129.77 12.9997 128.96 10.9497 128.96 9.48969L126.69 9.43969C125.61 9.40969 124.6 8.92969 123.89 8.10969C123.48 7.62969 123.56 6.88968 124.06 6.49968L126.97 4.19968C127.81 3.53968 129.02 3.66969 129.69 4.49969C133.61 9.38968 146 24.8497 150.36 30.3497C151.13 31.3397 150.59 32.8097 149.31 33.0297ZM178.6 34.3797C182.88 28.8097 195.04 13.1697 198.88 8.21969C199.54 7.37969 200.75 7.22969 201.6 7.87969L204.54 10.1297C205.05 10.5197 205.14 11.2497 204.73 11.7397C204.04 12.5697 203.03 13.0697 201.95 13.1097L199.68 13.1997C199.7 14.6497 198.92 16.7197 197.93 17.7897L180.71 36.6197C180.45 36.9097 180.06 37.0897 179.67 37.0297C178.4 36.8297 177.84 35.3697 178.6 34.3797ZM182.1 48.6897C181.49 50.4797 179.17 50.9497 177.92 49.5297L171.29 42.0497C170.68 41.3597 171.04 40.2597 171.94 40.0697C173.99 39.6297 176.12 40.2397 177.64 41.6797L181.21 45.0897C182.18 46.0197 182.53 47.4197 182.1 48.6897ZM229.51 129.09C229.15 130 228.28 130.6 227.3 130.6H223.52C221.62 130.6 219.76 131.21 218.23 132.33L214.84 134.81C214.04 135.4 213.02 135.62 212.04 135.41C210.77 135.14 210.18 133.67 210.91 132.6L214.8 126.88C215.88 125.3 217.81 124.54 219.67 124.97L228.41 126.98C229.34 127.21 229.86 128.2 229.51 129.09Z" fill="#FF2481"/>
</svg>
