<?xml version="1.0" encoding="utf-8"?>
<!-- Generator: Adobe Illustrator 28.1.0, SVG Export Plug-In . SVG Version: 6.00 Build 0)  -->
<svg version="1.1" xmlns="http://www.w3.org/2000/svg" xmlns:xlink="http://www.w3.org/1999/xlink" x="0px" y="0px"
	 viewBox="0 0 792 612" style="enable-background:new 0 0 792 612;" xml:space="preserve">
<style type="text/css">
	.st0{opacity:0.39;clip-path:url(#SVGID_00000067200251227427936150000013186196837454981255_);}
	.st1{opacity:0.39;}
	.st2{clip-path:url(#SVGID_00000067200251227427936150000013186196837454981255_);}
	.st3{fill:none;stroke:#FF2481;stroke-width:4;stroke-miterlimit:10;}
	.st4{fill:none;stroke:#FF2481;stroke-width:2;stroke-miterlimit:10;}
	.st5{fill:#FF2481;}
</style>
<g id="Layer_1">
	<path d="M310.61,408.45c2.74-0.04,5.47-0.79,7.46,0.1c2.05,0.92,2.14,4.03,3.02,6.21c1.94,4.77,3.8,9.57,6.06,14.28
		c0-6.19,0.07-12.39-0.05-18.57c-0.03-1.8,0.5-2.2,2.22-2.18c5.31,0.07,5.31,0,5.31,5.3c0,11.29-0.04,22.58,0.04,33.87
		c0.01,1.73-0.39,2.23-2.17,2.2c-5.69-0.09-5.69-0.01-7.84-5.47C320.01,432.36,315.36,420.54,310.61,408.45z"/>
	<path d="M288.48,422.29c-0.47,2.29-1,4.57-1.38,6.87c-0.19,1.14-0.66,1.6-1.81,1.44c-0.53-0.08-1.09-0.01-1.63-0.01
		c-4.57,0-4.56,0-3.66-4.38c1.06-5.17,2.21-10.34,3.1-15.54c0.34-1.95,1.08-2.56,3-2.38c2.08,0.19,4.2,0.12,6.3,0.01
		c1.21-0.06,1.62,0.43,1.84,1.51c1.92,9.75,3.82,19.51,5.86,29.24c0.33,1.57-0.35,1.47-1.38,1.46c-4.05-0.02-8.09,0.03-12.14-0.03
		c-1.29-0.02-1.96,0.23-2.14,1.7c-0.25,2.07-0.83,4.11-1.23,6.17c-0.12,0.64-0.18,1.26-1.04,1.26c-1.95,0-3.89,0-5.84,0
		c-1.01,0-0.85-0.61-0.71-1.27c0.96-4.72,1.95-9.44,2.83-14.17c0.24-1.27,1.02-1.14,1.87-1.14c3.04,0,6.07-0.06,9.11,0.03
		c1.44,0.04,1.93-0.25,1.54-1.81c-0.74-2.95-1.28-5.96-1.9-8.94C288.86,422.3,288.67,422.29,288.48,422.29z"/>
	<path d="M356.15,422.53c-0.47,2.28-0.96,4.56-1.39,6.85c-0.14,0.77-0.3,1.26-1.26,1.23c-2.16-0.07-4.33-0.02-6.6-0.02
		c1.4-7.07,2.77-13.91,4.1-20.77c0.21-1.08,0.62-1.58,1.83-1.53c2.41,0.1,4.83,0.1,7.24,0c1.16-0.04,1.65,0.35,1.87,1.46
		c1.93,9.76,3.85,19.52,5.89,29.25c0.31,1.5-0.27,1.51-1.37,1.5c-3.89-0.03-7.79,0.04-11.68-0.04c-1.58-0.03-2.59,0.13-2.73,2.1
		c-0.14,1.92-0.75,3.8-1.13,5.7c-0.1,0.53-0.03,1.24-0.74,1.26c-2.18,0.06-4.36,0.08-6.53,0c-0.65-0.02-0.46-0.66-0.36-1.11
		c0.99-4.79,2.02-9.58,2.92-14.39c0.22-1.18,0.94-1.02,1.69-1.02c3.11-0.01,6.23-0.04,9.34,0.01c1.24,0.02,1.85-0.07,1.45-1.64
		c-0.76-2.94-1.27-5.95-1.88-8.93C356.59,422.49,356.37,422.51,356.15,422.53z"/>
	<path d="M525.79,429.03c0-6.22,0.05-12.44-0.04-18.65c-0.02-1.59,0.36-2.12,2.04-2.11c5.49,0.04,5.5-0.03,5.5,5.4
		c-0.01,11.28-0.09,22.57-0.02,33.85c0.01,1.82-0.53,2.16-2.22,2.14c-5.67-0.08-5.67-0.01-7.75-5.3
		c-4.45-11.34-8.87-22.69-13.37-34.01c-0.61-1.53-0.63-2.09,1.32-2.07c6.01,0.05,6.01-0.03,8.21,5.64
		c1.96,5.04,3.92,10.08,5.88,15.12C525.51,429.04,525.65,429.04,525.79,429.03z"/>
	<path d="M309.72,371.86c-0.46,2.35-0.97,4.7-1.37,7.06c-0.19,1.11-0.62,1.51-1.81,1.55c-5.98,0.18-5.98,0.22-4.79-5.64
		c0.96-4.72,2.01-9.43,2.83-14.17c0.25-1.46,0.69-1.99,2.18-1.92c2.64,0.14,5.94-0.86,7.75,0.38c1.84,1.27,1.39,4.86,1.93,7.43
		c1.49,7.15,2.9,14.33,4.41,21.48c0.32,1.51,0.04,1.98-1.59,1.93c-3.89-0.12-7.79,0.01-11.68-0.07c-1.16-0.02-1.62,0.33-1.8,1.46
		c-0.3,1.92-0.86,3.8-1.09,5.73c-0.17,1.43-0.82,1.7-2.13,1.71c-5.65,0.03-5.65,0.07-4.54-5.39c0.61-2.97,1.36-5.92,1.77-8.92
		c0.22-1.63,0.99-1.78,2.3-1.75c2.88,0.06,5.76-0.04,8.64,0.05c1.36,0.04,1.6-0.5,1.35-1.66c-0.67-3.1-1.31-6.21-1.96-9.31
		C309.99,371.82,309.85,371.84,309.72,371.86z"/>
	<path d="M455.98,423.3c1.72-4.35,3.47-8.66,5.1-13.01c0.52-1.4,1.12-2.25,2.8-2c1.87,0.29,4.51-0.85,5.46,0.48
		c0.79,1.11-0.95,3.35-1.62,5.06c-2.72,7.01-5.57,13.98-8.25,21c-0.55,1.43-1.12,2.07-2.77,2.01c-3.86-0.14-3.85-0.03-5.3-3.72
		c-3.01-7.65-6-15.31-9.08-22.93c-0.64-1.58-0.42-1.92,1.29-1.92c6.05,0,6.04-0.05,8.24,5.64c1.17,3.03,2.41,6.03,3.64,9.04
		C455.54,423.09,455.73,423.14,455.98,423.3z"/>
	<path d="M238.69,408.34c2.51,0,4.68,0.06,6.84-0.03c1.16-0.05,1.4,0.66,1.73,1.49c1.49,3.83,3,7.66,4.54,11.47
		c0.28,0.69,0.36,1.51,1.25,2.06c1.78-4.5,3.58-8.92,5.26-13.39c0.45-1.21,1-1.72,2.33-1.64c1.99,0.12,3.99,0.03,6.29,0.03
		c-2.68,6.84-5.24,13.38-7.8,19.92c-0.91,2.31-1.86,4.61-2.7,6.94c-0.42,1.17-1,1.81-2.36,1.62c-0.92-0.13-1.87-0.08-2.8-0.01
		c-0.99,0.07-1.5-0.26-1.89-1.25C245.9,426.6,242.37,417.67,238.69,408.34z"/>
	<path d="M344.91,373.51c1.78-4.53,3.51-8.75,5.09-13.02c0.48-1.29,1.1-1.84,2.51-1.74c1.85,0.13,3.72,0.03,5.91,0.03
		c-1.12,2.86-2.15,5.49-3.18,8.13c-2.36,5.99-4.76,11.96-7.04,17.98c-0.43,1.14-0.95,1.52-2.16,1.53c-4.06,0.02-4.07,0.07-5.56-3.71
		c-2.91-7.35-5.76-14.73-8.74-22.05c-0.67-1.65-0.27-1.91,1.35-1.9c5.64,0,5.65-0.05,7.79,5.25c1.22,3.02,2.41,6.05,3.61,9.07
		C344.52,373.13,344.59,373.17,344.91,373.51z"/>
	<path d="M503.17,398.55c-0.25,0.1-0.32,0.15-0.39,0.16c-6.97,0.48-6.96,0.48-8.69-6.17c-0.63-2.41-1.3-4.8-1.88-7.22
		c-0.21-0.87-0.5-1.5-1.51-1.33c-1.68,0.28-1.75-0.74-1.64-1.95c0.04-0.39,0.01-0.78,0.01-1.17c0-3.77,0-3.8,3.63-4.11
		c1.35-0.12,1.94-0.78,1.94-2.09c-0.01-2.02-0.07-4.05,0.02-6.07c0.08-1.94-0.79-2.82-2.65-2.53c-2.48,0.39-3.11-0.6-3-2.99
		c0.2-4.31,0.06-4.32,4.48-4.32c4.44,0,8.41,3.95,8.41,8.37c0,2.57-0.09,5.14,0.02,7.71c0.1,2.41,0.02,4.65-2.27,6.15
		c-1.02,0.67-0.6,1.63-0.37,2.53C500.57,388.5,501.85,393.46,503.17,398.55z"/>
	<path d="M470.23,378.98c0,4.2-0.05,8.41,0.03,12.61c0.03,1.36-0.37,2.33-1.37,3.25c-2.18,2-3.85,4.72-7.56,4
		c-1.17-0.23-1.85-0.28-1.73-1.68c0.11-1.39,0.07-2.8,0.01-4.2c-0.05-1.07,0.25-1.58,1.43-1.51c1.53,0.09,1.97-0.87,1.97-2.25
		c-0.02-6.93-0.01-13.86,0-20.78c0-1.45-0.45-2.42-2.12-2.36c-0.43,0.01-1.13,0.17-1.16-0.43c-0.09-2.09-0.05-4.19-0.04-6.29
		c0-0.34,0.32-0.56,0.64-0.54c2.15,0.14,4.21-0.4,6.23,1.51c2.76,2.61,4.16,5.25,3.73,9.11
		C469.95,372.57,470.23,375.79,470.23,378.98z"/>
	<path d="M446.65,378.94c0-4.2,0.11-8.41-0.05-12.61c-0.07-1.78,0.64-2.88,1.82-4c2.06-1.94,3.75-4.53,7.23-3.57
		c0.22,0.06,0.54-0.08,0.69,0.03c2,1.53,0.49,3.66,0.89,5.48c0.15,0.69,0.46,1.89-1.03,1.78c-1.95-0.14-2.34,0.99-2.33,2.62
		c0.03,6.77,0.02,13.55,0,20.32c0,1.41,0.3,2.55,2.01,2.45c1.21-0.07,1.47,0.51,1.39,1.54c-0.05,0.62,0.09,1.26-0.03,1.86
		c-0.25,1.29,0.84,3.41-0.62,3.73c-2,0.44-4.19,0.65-6.25-1.22c-2.9-2.63-4.19-5.42-3.78-9.32
		C446.9,385.04,446.65,381.98,446.65,378.94z"/>
	<path d="M252.29,382.41c-0.86,0-1.74-0.15-2.56,0.02c-4.58,1-7.59-1.35-10.3-4.57c-0.56-0.67-0.72-1.3-0.71-2.1
		c0.02-2.18,0.24-4.38-0.04-6.52c-0.5-3.74,0.62-6.63,3.7-8.8c0.74-0.52,1.14-1.46,2.17-1.66c3.45-0.68,4.17-0.11,4.17,3.38
		c0,0.93,0,1.87,0,2.8c0,0.56,0.01,1.09-0.81,1.09c-1.69,0-2,1.09-1.98,2.5c0.09,7.53-0.87,6.84,6.31,6.44
		c4.49-0.25,6.18,2.97,8.58,5.36c0.9,0.89,0.57,2.15-1.29,2.07C257.11,382.33,254.7,382.41,252.29,382.41z"/>
	<path d="M396.87,382.41c-1.09,0-2.2-0.13-3.26,0.03c-3.53,0.53-6.2-0.61-8.5-3.41c-1.21-1.48-2.07-2.73-1.88-4.69
		c0.16-1.62,0.22-3.29-0.01-4.89c-0.56-3.82,0.61-6.8,3.77-9.03c0.69-0.48,1.08-1.35,1.96-1.6c3.18-0.92,4.42,0.02,4.42,3.34
		c0,0.93,0,1.87,0,2.8c0,0.57-0.02,1.1-0.82,1.1c-1.9-0.01-2,1.27-1.98,2.71c0.1,7.25-0.93,6.64,6.27,6.23
		c4.5-0.25,6.14,3.02,8.56,5.38c0.85,0.82,0.63,2.17-1.3,2.07C401.7,382.32,399.29,382.41,396.87,382.41z"/>
	<path d="M557.24,382.41c-1.25,0-2.51-0.16-3.73,0.03c-3.31,0.51-5.68-0.7-7.88-3.19c-1.45-1.63-2.33-3.09-2.1-5.29
		c0.16-1.54,0.22-3.14-0.01-4.66c-0.55-3.73,0.82-6.39,3.59-8.92c1.78-1.63,3.52-1.62,5.51-1.64c0.83-0.01,1.06,0.42,1.05,1.17
		c-0.02,1.71-0.01,3.42,0,5.14c0.01,0.65-0.21,1-0.93,1.01c-1.56,0.01-1.89,1.01-1.87,2.35c0.12,7.72-1,6.94,6.41,6.57
		c4.52-0.22,6.05,3.17,8.5,5.49c0.64,0.61,0.58,2.08-1.29,1.97C562.07,382.31,559.65,382.41,557.24,382.41z"/>
	<path d="M437.38,371.86c0,0.93-0.13,1.89,0.02,2.8c0.56,3.47-0.87,5.86-3.32,8.32c-2.81,2.83-6.04,1.96-8.89,1.53
		c-1.54-0.24-0.42-3.27-0.62-5.02c-0.07-0.64-0.48-1.64,0.68-1.92c0.22-0.06,0.47-0.01,0.7-0.03c4.15-0.29,4.15-0.29,4.15-4.52
		c0-1.48-0.06-2.96,0.01-4.44c0.08-1.76-0.59-2.55-2.44-2.55c-3.14,0.01-3.14-0.06-3.14-3.21c0-4.05,0-4.05,4.01-4.04
		c5.08,0,8.84,3.78,8.84,8.88C437.38,369.06,437.38,370.46,437.38,371.86z"/>
	<path d="M558.15,433.98c0,4.59-0.07,9.18,0.03,13.77c0.03,1.56-0.47,1.92-1.97,1.91c-5.58-0.01-5.58,0.05-5.58-5.54
		c0-7.86,0.04-15.71-0.04-23.57c-0.02-1.71,0.27-2.43,2.23-2.38c5.31,0.12,5.32,0.02,5.32,5.31
		C558.15,426.98,558.15,430.48,558.15,433.98z"/>
	<path d="M394.43,398.77c-0.08,0-0.16-0.01-0.23,0c-4.6,1.03-7.57-1.43-10.26-4.66c-1.18-1.42-0.59-2.97-0.63-4.46
		c-0.1-3.75-0.03-3.75,3.78-3.76c0.54,0,1.1,0.06,1.63-0.02c1.6-0.23,1.97,0.5,1.91,1.98c-0.05,1.22-0.65,3.06,1.07,3.41
		c1.99,0.41,4.24,0.78,6.12-0.29c1.33-0.76,0.71-2.46,0.62-3.7c-0.13-1.94,0.29-2.67,2.47-2.58c4.79,0.2,4.4,0.1,4.91,4.82
		c0.51,4.68-2.63,6.83-5.47,8.9c-1.31,0.96-3.9,0.16-5.91,0.16C394.43,398.65,394.43,398.71,394.43,398.77z"/>
	<path d="M555,398.77c-0.44,0-0.52-0.01-0.6,0c-4.63,1.07-7.54-1.54-10.22-4.72c-1.18-1.39-0.55-2.98-0.59-4.46
		c-0.11-3.71-0.04-3.71,3.57-3.71c0.31,0,0.63,0.05,0.93-0.01c2.2-0.4,3.18,0.38,2.79,2.71c-0.39,2.31,0.8,3.13,2.97,2.88
		c0.15-0.02,0.31,0,0.47,0c4.39,0,4.5,0,4.36-4.48c-0.06-1.9,0.57-2.28,2.33-2.25c4.95,0.1,4.55,0.07,5.07,4.89
		c0.49,4.58-2.59,6.63-5.29,8.78C559.24,399.63,556.71,398.57,555,398.77z"/>
	<path d="M250.27,398.77c-0.51,0-0.68-0.03-0.82,0c-4.68,1.14-7.5-1.69-10.19-4.78c-1.06-1.21-0.46-2.69-0.49-4.03
		c-0.08-4.06-0.03-4.06,3.9-4.06c3.17,0,3.24,0,3.24,3.13c0,1.8,0.73,2.6,2.52,2.45c0.23-0.02,0.47,0,0.7,0
		c5.01,0.01,4.83,0.4,4.65-4.61c-0.07-1.83,0.52-2.17,2.22-2.14c5.13,0.09,4.74,0.05,5.24,4.98c0.47,4.61-2.81,6.51-5.42,8.72
		C254.41,399.62,251.91,398.59,250.27,398.77z"/>
	<path d="M270.39,373.87c0-4.43,0.06-8.86-0.03-13.29c-0.03-1.42,0.35-1.83,1.81-1.84c5.37-0.03,5.37-0.09,5.37,5.22
		c0,7.77-0.04,15.54,0.04,23.31c0.02,1.53-0.39,1.94-1.92,1.93c-5.26-0.03-5.26,0.03-5.26-5.31
		C270.39,380.55,270.39,377.21,270.39,373.87z"/>
	<path d="M402.28,434.81c0,1.32-0.18,2.67,0.03,3.96c0.65,3.93-0.76,6.9-3.91,9.19c-0.85,0.62-1.33,1.61-2.64,1.69
		c-4.27,0.26-4.26,0.32-4.26-4.04c0-0.7,0.04-1.4-0.01-2.1c-0.07-0.93,0.13-1.44,1.24-1.41c1.57,0.04,2.16-0.92,2.12-2.41
		c-0.04-1.32-0.08-2.65,0.01-3.96c0.13-1.95,0.09-3.62-2.66-3.01c-0.76,0.17-1.17-0.23-1.1-1.05c0.01-0.15,0.01-0.31,0-0.47
		c-0.26-5.97-0.26-5.97,5.75-5.97c5.42,0,5.42,0,5.42,5.38C402.28,432.01,402.28,433.41,402.28,434.81z"/>
	<path d="M519.49,383.38c0-4.44,0.05-8.87-0.03-13.31c-0.03-1.33,0.35-1.67,1.67-1.68c5.56-0.07,5.56-0.12,5.56,5.46
		c0,7.71-0.03,15.41,0.03,23.12c0.01,1.37-0.26,1.85-1.76,1.85c-5.45,0.01-5.45,0.07-5.46-5.4
		C519.49,390.07,519.49,386.72,519.49,383.38z"/>
	<path d="M389.12,412c0,0.7-0.03,1.4,0.01,2.1c0.07,1.04-0.01,1.8-1.42,1.74c-1.53-0.07-1.9,0.98-1.9,2.34
		c0.03,4.21-0.06,8.42,0.05,12.62c0.04,1.56-0.45,1.96-1.97,1.96c-5.56,0-5.56,0.05-5.56-5.54c0-3.74,0.06-7.48-0.03-11.22
		c-0.04-1.51,0.27-2.69,1.49-3.67c0.97-0.78,1.89-1.66,2.64-2.64c1.68-2.18,3.98-1.16,6.05-1.3c0.61-0.04,0.63,0.56,0.63,1.04
		C389.12,410.29,389.12,411.15,389.12,412z"/>
	<path d="M469.79,416.4c0,10.65-0.01,21.29,0.02,31.94c0,1.04-0.42,1.24-1.38,1.3c-6.13,0.37-5.88,0.38-6.2-5.67
		c-0.35-6.59,0.71-12.76,3.61-18.69c1.42-2.91,2.39-6.04,3.56-9.06C469.53,416.28,469.66,416.34,469.79,416.4z"/>
	<path d="M442.14,416.22c2.33,5.96,5.31,11.77,6.79,17.94c1.1,4.57,0.25,9.6,0.28,14.42c0.01,0.82-0.38,1.07-1.14,1.05
		c-1.48-0.04-2.97-0.11-4.43,0.02c-1.55,0.13-1.98-0.42-1.95-1.96c0.09-5.76,0.04-11.52,0.04-17.28c0-4.67,0-9.34,0-14.01
		C441.86,416.34,442,416.28,442.14,416.22z"/>
	<path d="M266.84,416.4c0,7.12,0,14.25,0,21.37c0,3.43-0.04,6.85,0.04,10.28c0.03,1.21-0.34,1.55-1.57,1.59
		c-5.93,0.16-5.68,0.19-6-5.65c-0.35-6.51,0.63-12.62,3.5-18.5c1.42-2.92,2.42-6.05,3.61-9.08
		C266.56,416.41,266.7,416.4,266.84,416.4z"/>
	<path d="M419.29,420.56c0,3.5-0.05,7,0.03,10.49c0.03,1.32-0.37,1.68-1.7,1.71c-5.82,0.11-5.82,0.16-5.82-5.51
		c0-5.67,0.06-11.35-0.04-17.02c-0.03-1.58,0.49-1.93,1.98-1.93c5.56-0.01,5.56-0.06,5.56,5.51
		C419.29,416.05,419.29,418.3,419.29,420.56z"/>
	<path d="M422.24,371.93c0,3.73-0.06,7.47,0.03,11.2c0.03,1.34-0.39,1.67-1.71,1.69c-5.59,0.08-5.59,0.13-5.59-5.44
		c0-6.22,0.05-12.44-0.03-18.66c-0.02-1.5,0.34-1.98,1.91-1.98c5.39,0.01,5.39-0.06,5.39,5.26
		C422.25,366.64,422.24,369.28,422.24,371.93z"/>
	<path d="M486.79,371.46c0,3.58-0.08,7.17,0.04,10.74c0.05,1.48-0.43,1.8-1.83,1.82c-5.5,0.05-5.5,0.1-5.5-5.33
		c0-6,0.05-11.99-0.04-17.99c-0.02-1.52,0.37-1.97,1.92-1.97c5.41,0,5.41-0.06,5.4,5.26C486.78,366.48,486.79,368.97,486.79,371.46z
		"/>
	<path d="M239.21,416.26c1.71,4.37,3.27,8.8,5.17,13.08c1.42,3.2,2.07,6.42,1.87,9.91c-0.16,2.79-0.14,5.6,0.01,8.39
		c0.09,1.71-0.53,2.02-2.1,2.01c-5.36-0.05-5.36,0.01-5.36-5.27c0-9.32,0-18.64,0-27.97C238.93,416.36,239.07,416.31,239.21,416.26z
		"/>
	<path d="M311.1,416.28c2.29,5.82,4.57,11.64,6.86,17.45c0.42,1.06,0.21,2.15,0.21,3.23c0.03,3.65-0.04,7.31,0.04,10.96
		c0.03,1.32-0.36,1.69-1.69,1.71c-5.8,0.11-5.8,0.15-5.8-5.51c0-9.25,0-18.5,0-27.75C310.85,416.35,310.97,416.32,311.1,416.28z"/>
	<path d="M509.74,416.26c2.31,5.88,4.64,11.76,6.92,17.65c0.21,0.55,0.17,1.22,0.17,1.84c0.01,3.89-0.12,7.78,0.06,11.66
		c0.09,1.96-0.63,2.28-2.37,2.25c-5.14-0.09-5.14-0.02-5.14-5.22c0-8.63,0-17.26,0-25.89c0-0.74,0-1.48,0-2.22
		C509.5,416.3,509.62,416.28,509.74,416.26z"/>
	<path d="M554.26,415.83c-3.27,0-6.54-0.05-9.8,0.02c-1.19,0.02-1.58-0.29-1.62-1.55c-0.2-5.99-0.24-5.99,5.8-5.99
		c5.21,0,10.43,0.04,15.64-0.03c1.31-0.02,1.69,0.34,1.71,1.68c0.1,5.87,0.15,5.86-5.66,5.86
		C558.3,415.83,556.28,415.83,554.26,415.83z"/>
	<path d="M479.46,420.31c0-3.42,0.05-6.84-0.02-10.26c-0.03-1.24,0.22-1.74,1.63-1.76c5.85-0.1,5.85-0.15,5.85,5.69
		c0,5.68-0.03,11.35,0.03,17.03c0.01,1.26-0.27,1.73-1.65,1.77c-5.83,0.15-5.83,0.2-5.83-5.7
		C479.46,424.82,479.46,422.56,479.46,420.31z"/>
	<path d="M358.38,366.52c0,10.18-0.02,20.36,0.02,30.54c0.01,1.26-0.27,1.72-1.64,1.74c-5.65,0.1-5.4,0.14-5.71-5.43
		c-0.37-6.43,0.68-12.45,3.5-18.25c1.37-2.82,2.34-5.84,3.49-8.77C358.15,366.41,358.27,366.47,358.38,366.52z"/>
	<path d="M331.64,366.6c2.12,5.4,4.22,10.81,6.37,16.2c0.69,1.74,0.35,3.54,0.39,5.31c0.06,3.03-0.03,6.07,0.04,9.1
		c0.02,1.16-0.24,1.8-1.53,1.57c-0.08-0.01-0.16,0-0.23,0c-5.47,0.11-5.47,0.11-5.47-5.35c0-8.93,0-17.86,0-26.79
		C331.35,366.62,331.5,366.61,331.64,366.6z"/>
	<path d="M523.13,366.06c-3.26,0-6.52-0.04-9.78,0.02c-1.07,0.02-1.45-0.26-1.51-1.41c-0.33-5.9-0.37-5.9,5.42-5.9
		c5.12,0,10.25,0.04,15.37-0.03c1.32-0.02,1.69,0.36,1.71,1.68c0.11,5.64,0.15,5.64-5.39,5.64
		C527.01,366.06,525.07,366.06,523.13,366.06z"/>
	<path d="M378.34,440.35c0-5.22,0.01-5.04,4.71-5.29c2.52-0.13,3,0.75,2.82,2.97c-0.16,1.93-0.51,3.71,2.61,4.4
		c1.64,0.36,0.33,3.58,0.61,5.48c0.09,0.6,0.33,1.65-0.71,1.64c-2.15-0.02-4.57,0.85-6.15-1.54c-0.21-0.32-0.51-0.59-0.82-0.83
		C378.97,445.3,377.48,443.03,378.34,440.35z"/>
	<path d="M411.79,442.09c0-1.79,0.07-3.59-0.03-5.37c-0.06-1.2,0.29-1.58,1.53-1.63c5.99-0.24,5.99-0.28,5.99,5.76
		c0,2.41-0.06,4.83,0.02,7.24c0.04,1.25-0.42,1.52-1.61,1.55c-5.9,0.14-5.9,0.18-5.9-5.68
		C411.79,443.34,411.79,442.71,411.79,442.09z"/>
	<path d="M402.28,417.69c0,3.93,0,3.93-3.83,3.93c-0.7,0-1.41-0.07-2.09,0.01c-1.28,0.16-1.56-0.42-1.53-1.59
		c0.06-2.04,0.49-4-2.8-4.52c-1.26-0.2-0.36-3.31-0.5-5.09c-0.05-0.67-0.49-1.96,0.48-1.99c1.98-0.06,4.2-0.96,5.87,0.99
		c0.5,0.59,1.09,1.1,1.64,1.65C402.28,413.85,402.28,413.85,402.28,417.69z"/>
	<path d="M486.92,442.3c0,0.7,0.04,1.4-0.01,2.1c-0.13,1.68,0.77,4.25-0.38,4.83c-1.69,0.85-4.07,0.31-6.16,0.38
		c-0.96,0.03-0.91-0.62-0.91-1.26c0-3.97,0.03-7.94-0.02-11.91c-0.01-0.99,0.24-1.48,1.29-1.33c0.08,0.01,0.16,0,0.23,0
		c1.93,0.12,4.99-0.8,5.55,0.33c0.92,1.87,0.25,4.52,0.25,6.85C486.82,442.3,486.87,442.3,486.92,442.3z"/>
	<path d="M405.7,367.38c0,4.27,0,4.27-3.89,4.27c-0.62,0-1.25-0.05-1.86,0.01c-1.07,0.11-1.49-0.22-1.5-1.38
		c-0.01-1.85,0.83-4.29-2.48-4.37c-0.39-0.01-0.27-0.65-0.27-1.01c-0.02-0.93-0.12-1.88,0.02-2.79c0.18-1.11-0.84-2.91,0.68-3.21
		c1.65-0.32,3.73-0.84,5.14,1.05c0.46,0.62,1.03,1.18,1.64,1.64C405.27,363.18,406.32,365.16,405.7,367.38z"/>
	<path d="M565.95,367.8c0,3.85,0,3.85-3.86,3.85c-0.54,0-1.1-0.07-1.63,0.01c-1.5,0.24-1.83-0.45-1.78-1.83
		c0.06-1.68,0.61-3.79-2.28-3.85c-0.61-0.01-0.46-0.7-0.47-1.13c-0.02-0.85-0.09-1.71,0.01-2.55c0.14-1.16-0.68-3.04,0.52-3.34
		c1.79-0.45,4.02-0.93,5.51,1.14c0.36,0.5,0.86,0.88,1.3,1.32C565.95,364.09,565.95,364.09,565.95,367.8z"/>
	<path d="M261.12,367.36c0,4.29,0,4.29-3.9,4.29c-0.54,0-1.1-0.07-1.63,0.01c-1.51,0.23-1.85-0.46-1.8-1.85
		c0.06-1.69,0.61-3.8-2.28-3.85c-0.6-0.01-0.46-0.71-0.47-1.15c-0.02-0.86-0.11-1.73,0.02-2.56c0.18-1.14-0.78-2.96,0.63-3.29
		c1.74-0.41,3.89-0.87,5.35,1.09c0.41,0.56,0.93,1.06,1.48,1.48C260.6,363.12,261.73,365.08,261.12,367.36z"/>
	<path d="M479.49,392.58c0-0.31,0-0.62,0-0.93c0-5.84,0-5.81,5.93-5.39c0.97,0.07,1.39,0.3,1.38,1.33c-0.04,3.27-0.04,6.54,0,9.8
		c0.01,0.95-0.21,1.52-1.29,1.38c-0.08-0.01-0.16,0-0.23,0C479.49,399.06,479.49,399.06,479.49,392.58z"/>
	<path d="M422.24,392.99c0,0.08,0,0.16,0,0.23c0,6.01,0,5.98-5.97,5.58c-1.03-0.07-1.32-0.37-1.31-1.36c0.05-3.03,0.07-6.07,0-9.1
		c-0.04-1.85,1.4-1.37,2.08-1.15c1.71,0.55,4.2-1.65,5.11,1.15C422.62,389.75,422.24,391.43,422.24,392.99z"/>
	<path d="M426.95,415.82c-5.32,0-5.25,0-5.32-5.3c-0.02-1.7,0.35-2.37,2.17-2.23c2.16,0.16,4.35,0.13,6.52,0.01
		c1.48-0.08,2,0.46,1.78,1.86c-0.02,0.15,0,0.31,0,0.47C432.13,415.82,432.13,415.82,426.95,415.82z"/>
	<path d="M426.87,449.61c-5.2,0-5.09,0-5.25-5.17c-0.07-2.05,0.62-2.59,2.48-2.34c0.92,0.12,1.87-0.03,2.79,0.03
		c1.69,0.1,4.3-0.75,4.86,0.36c0.84,1.69,0.3,4.07,0.34,6.16c0.02,0.88-0.57,0.97-1.25,0.96
		C429.52,449.61,428.2,449.61,426.87,449.61z"/>
	<path d="M494.45,408.32c5.24,0,5.17,0,5.25,5.35c0.03,1.68-0.29,2.37-2.13,2.2c-2.08-0.18-4.21-0.16-6.3-0.01
		c-1.71,0.12-2.22-0.55-1.97-2.1c0.01-0.08,0-0.16,0-0.23C489.29,408.32,489.29,408.32,494.45,408.32z"/>
	<path d="M494.54,449.62c-5.26,0-5.18,0-5.27-5.35c-0.03-1.71,0.35-2.34,2.15-2.19c2.09,0.17,4.21,0.17,6.29,0
		c1.73-0.14,2.23,0.52,1.96,2.08c-0.01,0.08,0,0.16,0,0.23C499.67,449.62,499.67,449.62,494.54,449.62z"/>
	<path d="M284.39,391.48c4.37-0.01,4.22,0,4.43,4.34c0.11,2.4-0.54,3.42-2.99,2.96c-0.15-0.03-0.31,0-0.47,0
		c-6.07,0-6.05,0-5.47-6.06c0.08-0.88,0.32-1.27,1.22-1.23C282.21,391.51,283.3,391.48,284.39,391.48z"/>
	<path d="M421.67,428.98c0-3.76,0-3.76,3.78-3.76c3.34,0,3.34,0,3.34,3.5c0,4.01,0,4.01-3.78,4
		C421.67,432.72,421.67,432.72,421.67,428.98z"/>
	<path d="M496.37,429.16c-0.01,3.57-0.01,3.57-3.48,3.57c-0.62,0-1.25-0.05-1.86,0.01c-1.25,0.13-1.94-0.23-1.73-1.63
		c0.07-0.46,0.01-0.93,0.01-1.4c0-4.5,0-4.39,4.43-4.55c2.07-0.07,2.99,0.45,2.65,2.6C496.31,428.21,496.37,428.69,496.37,429.16z"
		/>
	<path d="M270.4,395.15c0-3.68,0-3.68,3.38-3.68c3.76,0,3.76,0,3.76,4.69c0,2.6-0.02,2.38-4.65,2.67
		C269.41,399.06,270.56,396.81,270.4,395.15z"/>
	<path d="M364.96,442.9c3.6,0.01,3.6,0.01,4.38,3.67c0.64,3.04,0.64,3.04-2.54,3.04c-4.63,0-5.45-0.85-5.61-5.64
		c-0.03-0.84,0.18-1.12,0.99-1.08C363.1,442.93,364.03,442.9,364.96,442.9z"/>
	<path d="M297.17,442.9c3.7,0,3.7,0,4.44,3.6c0.64,3.11,0.64,3.11-2.44,3.11c-4.48,0-4.38-0.02-5.47-4.39
		c-0.47-1.88-0.15-2.62,1.84-2.33C296.07,442.96,296.62,442.9,297.17,442.9z"/>
	<path d="M317.94,392.29c3.76,0,3.55,0.06,4.54,3.83c0.67,2.54-0.17,2.76-2.34,2.68c-4.52-0.15-4.45-0.06-5.49-4.46
		c-0.39-1.64-0.12-2.32,1.65-2.07C316.84,392.36,317.4,392.29,317.94,392.29z"/>
	<g>
		<defs>
			<circle id="SVGID_1_" cx="402.79" cy="316.73" r="16.7"/>
		</defs>
		<clipPath id="SVGID_00000031184656551630010310000003888595895486305967_">
			<use xlink:href="#SVGID_1_"  style="overflow:visible;"/>
		</clipPath>
		<g style="opacity:0.39;clip-path:url(#SVGID_00000031184656551630010310000003888595895486305967_);">
			<defs>
				
					<rect id="SVGID_00000003072753862703917570000002251453463823590274_" x="43.76" y="30.89" class="st1" width="712.01" height="557.73"/>
			</defs>
			<clipPath id="SVGID_00000030477683086551457940000011686100472107999383_">
				<use xlink:href="#SVGID_00000003072753862703917570000002251453463823590274_"  style="overflow:visible;"/>
			</clipPath>
		</g>
		<g style="clip-path:url(#SVGID_00000031184656551630010310000003888595895486305967_);">
			<circle class="st3" cx="417.72" cy="308.42" r="16.7"/>
			<circle class="st3" cx="417.72" cy="308.42" r="22.82"/>
			<circle class="st3" cx="412.44" cy="311.44" r="22.82"/>
		</g>
	</g>
	<circle class="st4" cx="402.79" cy="316.73" r="16.7"/>
	<path class="st5" d="M391.74,258.86l15.99,22.71c0.88,1.24,1.96,1.03,3.4,0.54l0,0c0.58-0.61,0.65-1.54,0.17-2.22l-15.86-22.71
		c-0.74-1.06-2.2-1.34-3.28-0.62l0,0C391.4,257.07,391.21,258.11,391.74,258.86z"/>
	<g>
		<path class="st5" d="M392.33,275.27c1.2,1.2,3.2,1.03,4.18-0.35l5.31-7.5l-0.62-0.98c-0.53-0.76-1.22-1.24-1.84-0.54l-7.07,7.85
			C391.9,274.18,391.92,274.85,392.33,275.27L392.33,275.27z"/>
		<path class="st5" d="M387.97,278.54l-33.8,37.53c-0.71,0.79-0.18,2.05,0.88,2.1l5.73,0.26c2.96,0.14,5.79-1.25,7.51-3.67
			l23.5-33.17c0.69-0.97,0.58-2.3-0.27-3.14l0,0C390.53,277.45,388.91,277.5,387.97,278.54z"/>
	</g>
	<path class="st5" d="M402.62,271.1l-36.42,49.45c-0.33,0.45-0.88,0.69-1.44,0.63l-17.14-1.8c-0.33-0.03-0.67,0.04-0.95,0.2
		l-5.82,3.35c-0.68,0.39-0.88,1.27-0.43,1.91l0,0c0.33,0.48,0.94,0.69,1.5,0.52l6-1.87c0.65-0.2,1.35,0.03,1.75,0.58l6.21,8.54
		c0.26,0.36,0.36,0.81,0.27,1.25l-0.07,0.36c-0.17,0.82-0.95,1.37-1.78,1.25l-1.49-0.22c-0.26-0.04-0.51-0.14-0.72-0.3l-5.13-3.89
		c-1.19-0.9-2.63-1.43-4.12-1.51l-6.34-0.33c-0.5-0.03-0.89-0.44-0.89-0.94l0,0c0-0.37,0.22-0.71,0.56-0.86l1.51-0.66
		c0.5-0.22,0.86-0.68,0.93-1.23l0.06-0.39c0.05-0.32-0.03-0.64-0.2-0.91l-0.54-0.83c-0.34-0.53-0.34-1.22,0.02-1.75l6.97-10.29
		c0.63-0.93,0.5-2.19-0.31-2.97l-0.49-0.47c-0.71-0.69-1.87-0.56-2.42,0.27l-8.96,13.56c-0.17,0.26-0.26,0.56-0.26,0.87v4.46
		c0,1.62,0.81,3.13,2.15,4.03l2.97,2.42c2.54,2.07,5.41,3.71,8.5,4.77c0.9,0.31,4.27,1.52,4.66,1.52h7.23c0.5,0,0.98-0.24,1.27-0.65
		l43.57-60.69c0.21-0.29,0.52-0.5,0.86-0.59l3.08-0.84c1.06-0.29,1.51-1.53,0.88-2.43l-2.44-3.5
		C404.57,270.24,403.26,270.23,402.62,271.1z"/>
	<g>
		<path class="st5" d="M398.3,253.53l-4.32-4.93c-0.52-0.59-1.27-0.93-2.05-0.93l0,0l4.91,7.13c0.19,0.27,0.57,0.3,0.8,0.07
			l0.63-0.63C398.47,254.05,398.48,253.74,398.3,253.53z"/>
		<path class="st5" d="M449.44,311.96l-48.61-55.55c-0.2-0.23-0.55-0.24-0.76-0.03l-0.95,0.95c-0.18,0.18-0.2,0.46-0.06,0.67
			l38.13,55.36c1.15,1.62,3.16,2.41,5.11,2l5.55,0.06C449.65,315.44,450.62,313.32,449.44,311.96z"/>
	</g>
	<path class="st5" d="M474.01,321.72c-0.09-0.94-0.38-1.69-0.78-2.22l-51.97-68.15l3.07-4.65c1.51-2.28,1.49-5.24-0.05-7.49
		c-0.66-0.98-0.61-2.27,0.13-3.19c3.78-4.73,15.27-19.1,20.52-25.68c1.53-1.91,1.37-4.66-0.36-6.39l-2.48-2.48
		c-2.12-1.57-5.09-1.2-6.76,0.85l-22.64,27.53c-1.17,1.43-2.79,2.42-4.59,2.83l-0.09,0.02c-1.53,0.34-3.12-0.05-4.32-1.06
		l-0.05-0.05c-1.47-1.24-3.27-2-5.17-2.19c-1.83-0.18-3.97-0.43-4.41-0.48l0.04-0.01l-17.19-21.23l-7.42-9.23
		c-0.13-0.16-0.29-0.33-0.46-0.5l0,0c-0.02-0.02-0.04-0.04-0.06-0.06c-0.27-0.32-0.59-0.59-0.94-0.8c-0.02-0.01-0.04-0.03-0.06-0.04
		c-0.02-0.01-0.03-0.02-0.05-0.03c-1.22-0.68-2.76-0.66-3.99,0.16l-4.1,2.75c-0.16,0.11-0.3,0.23-0.44,0.36
		c-1.15,1.1-1.32,2.88-0.32,4.2l2.87,3.77l1.27,2.05c0.13,0.19,0.26,0.37,0.39,0.56l14.37,18.46l2.53,3.33
		c0.45,0.86,0.41,1.91-0.13,2.74l-0.92,1.39c-1,1.51-0.98,3.48,0.05,4.98l5.24,7.63c0.94,1.37,0.87,3.19-0.18,4.47
		c-6.05,7.42-25.91,31.76-31.64,38.78c-0.85,1.05-0.67,2.59,0.41,3.41l0.04,0.03c0.91,0.69,2.19,0.54,2.91-0.33
		c6.24-7.65,33.18-40.66,33.18-40.66l0.03,0.03c0.54,0.57,1.43,0.6,2.01,0.07l0.03-0.03c0.75-0.68,0.87-1.82,0.27-2.64
		c-1.79-2.47-5.46-7.55-7.56-10.45c-0.86-1.18-0.58-2.84,0.61-3.68l3.74-2.65c2.08-1.48,4.73-1.91,7.18-1.19l0.11,0.03
		c2.93,0.87,5.5,2.6,7.38,4.97c12.69,15.93,62.74,78.73,62.74,78.73c0.27,0.34-0.01,0.85-0.45,0.79l-5.21-1.23
		c-0.75-0.18-1.51-0.29-2.28-0.33c-2.02-0.1-5.35-0.15-6.32-0.16l-10.52-0.09c-1.9-0.02-3.67-0.93-4.79-2.47l-19.83-27.46
		c-0.72-1-2.12-1.23-3.13-0.51l-0.05,0.03c-1.02,0.73-1.26,2.14-0.54,3.16c4.34,6.11,18.46,26.06,27.1,38.28
		c1.73,2.44,4.16,5.45,6.84,6.78l0.48,0.21c1.62,0.71,3.34,1.19,5.1,1.28c1.93,0.09,3.55-0.25,5.47-1.26
		c0.02-0.01,0.05-0.02,0.07-0.04l12.39-7.15C472.71,326.88,474.26,324.37,474.01,321.72z M387.31,229.03
		c-0.39,0.07-0.78-0.11-1.04-0.4l-17.5-18.57c-1-1.06-1.81-3.11-1.81-4.57v0l-2.27-0.05c-1.08-0.03-2.09-0.51-2.8-1.33
		c-0.41-0.48-0.33-1.22,0.17-1.61l2.91-2.3c0.84-0.66,2.05-0.53,2.72,0.3c3.92,4.89,16.31,20.35,20.67,25.85
		C389.13,227.34,388.59,228.81,387.31,229.03z M416.6,230.38c4.28-5.57,16.44-21.21,20.28-26.16c0.66-0.84,1.87-0.99,2.72-0.34
		l2.94,2.25c0.51,0.39,0.6,1.12,0.19,1.61c-0.69,0.83-1.7,1.33-2.78,1.37l-2.27,0.09v0c0.02,1.45-0.76,3.52-1.75,4.59l-17.22,18.83
		c-0.26,0.29-0.65,0.47-1.04,0.41C416.4,232.83,415.84,231.37,416.6,230.38z M420.1,244.69L420.1,244.69
		c-0.61,1.79-2.93,2.26-4.18,0.84l-6.63-7.48c-0.61-0.69-0.25-1.79,0.65-1.98c2.05-0.44,4.18,0.17,5.7,1.61l3.57,3.41
		C420.18,242.02,420.53,243.42,420.1,244.69z M467.51,325.09c-0.36,0.91-1.23,1.51-2.21,1.51h-3.78c-1.9,0-3.76,0.61-5.29,1.73
		l-3.39,2.48c-0.8,0.59-1.82,0.81-2.8,0.6c-1.27-0.27-1.86-1.74-1.13-2.81l3.89-5.72c1.08-1.58,3.01-2.34,4.87-1.91l8.74,2.01
		C467.34,323.21,467.86,324.2,467.51,325.09z"/>
</g>
<g id="Layer_2">
</g>
</svg>
