<svg width="329" height="92" viewBox="0 0 329 92" fill="none" xmlns="http://www.w3.org/2000/svg">
<path d="M72.6099 50.4496C75.3499 50.4096 78.0799 49.6596 80.0699 50.5496C82.1199 51.4696 82.2099 54.5796 83.0899 56.7596C85.0299 61.5296 86.8899 66.3296 89.1499 71.0396C89.1499 64.8496 89.2199 58.6496 89.0999 52.4696C89.0699 50.6696 89.5999 50.2696 91.3199 50.2896C96.6299 50.3596 96.6299 50.2896 96.6299 55.5896C96.6299 66.8796 96.5899 78.1696 96.6699 89.4596C96.6799 91.1896 96.2799 91.6896 94.4999 91.6596C88.8099 91.5696 88.8099 91.6496 86.6599 86.1896C82.0099 74.3596 77.3599 62.5396 72.6099 50.4496Z" fill="black"/>
<path d="M50.4801 64.2898C50.0101 66.5798 49.4801 68.8598 49.1001 71.1598C48.9101 72.2998 48.4401 72.7598 47.2901 72.5998C46.7601 72.5198 46.2001 72.5897 45.6601 72.5897C41.0901 72.5897 41.1001 72.5897 42.0001 68.2097C43.0601 63.0397 44.2101 57.8698 45.1001 52.6698C45.4401 50.7198 46.1801 50.1098 48.1001 50.2898C50.1801 50.4798 52.3001 50.4097 54.4001 50.2997C55.6101 50.2397 56.0201 50.7297 56.2401 51.8097C58.1601 61.5597 60.0601 71.3197 62.1001 81.0497C62.4301 82.6197 61.7501 82.5198 60.7201 82.5098C56.6701 82.4898 52.6301 82.5398 48.5801 82.4798C47.2901 82.4598 46.6201 82.7097 46.4401 84.1797C46.1901 86.2497 45.6101 88.2898 45.2101 90.3498C45.0901 90.9898 45.0301 91.6097 44.1701 91.6097C42.2201 91.6097 40.2801 91.6097 38.3301 91.6097C37.3201 91.6097 37.4801 90.9997 37.6201 90.3397C38.5801 85.6197 39.5701 80.8998 40.4501 76.1698C40.6901 74.8998 41.4701 75.0297 42.3201 75.0297C45.3601 75.0297 48.3901 74.9697 51.4301 75.0597C52.8701 75.0997 53.3601 74.8097 52.9701 73.2497C52.2301 70.2997 51.6901 67.2897 51.0701 64.3097C50.8601 64.2997 50.6701 64.2898 50.4801 64.2898Z" fill="black"/>
<path d="M118.15 64.5295C117.68 66.8095 117.19 69.0895 116.76 71.3795C116.62 72.1495 116.46 72.6395 115.5 72.6095C113.34 72.5395 111.17 72.5895 108.9 72.5895C110.3 65.5195 111.67 58.6795 113 51.8195C113.21 50.7395 113.62 50.2395 114.83 50.2895C117.24 50.3895 119.66 50.3895 122.07 50.2895C123.23 50.2495 123.72 50.6395 123.94 51.7495C125.87 61.5095 127.79 71.2695 129.83 80.9995C130.14 82.4995 129.56 82.5095 128.46 82.4995C124.57 82.4695 120.67 82.5395 116.78 82.4595C115.2 82.4295 114.19 82.5895 114.05 84.5595C113.91 86.4795 113.3 88.3595 112.92 90.2595C112.82 90.7895 112.89 91.4995 112.18 91.5195C110 91.5795 107.82 91.5995 105.65 91.5195C105 91.4995 105.19 90.8595 105.29 90.4095C106.28 85.6195 107.31 80.8295 108.21 76.0195C108.43 74.8395 109.15 74.9995 109.9 74.9995C113.01 74.9895 116.13 74.9595 119.24 75.0095C120.48 75.0295 121.09 74.9395 120.69 73.3695C119.93 70.4295 119.42 67.4195 118.81 64.4395C118.59 64.4895 118.37 64.5095 118.15 64.5295Z" fill="black"/>
<path d="M287.79 71.0297C287.79 64.8097 287.84 58.5897 287.75 52.3797C287.73 50.7897 288.11 50.2597 289.79 50.2697C295.28 50.3097 295.29 50.2397 295.29 55.6697C295.28 66.9497 295.2 78.2397 295.27 89.5197C295.28 91.3397 294.74 91.6797 293.05 91.6597C287.38 91.5797 287.38 91.6497 285.3 86.3597C280.85 75.0197 276.43 63.6697 271.93 52.3497C271.32 50.8197 271.3 50.2597 273.25 50.2797C279.26 50.3297 279.26 50.2497 281.46 55.9197C283.42 60.9597 285.38 65.9997 287.34 71.0397C287.51 71.0397 287.65 71.0397 287.79 71.0297Z" fill="black"/>
<path d="M71.72 13.8595C71.26 16.2095 70.75 18.5595 70.35 20.9195C70.16 22.0295 69.73 22.4295 68.54 22.4695C62.56 22.6495 62.56 22.6895 63.75 16.8295C64.71 12.1095 65.76 7.39947 66.58 2.65947C66.83 1.19947 67.27 0.669456 68.76 0.739456C71.4 0.879456 74.7 -0.120539 76.51 1.11946C78.35 2.38946 77.9 5.97945 78.44 8.54945C79.93 15.6995 81.34 22.8795 82.85 30.0295C83.17 31.5395 82.89 32.0095 81.26 31.9595C77.37 31.8395 73.47 31.9695 69.58 31.8895C68.42 31.8695 67.96 32.2195 67.78 33.3495C67.48 35.2695 66.92 37.1495 66.69 39.0795C66.52 40.5095 65.87 40.7795 64.56 40.7895C58.91 40.8195 58.91 40.8595 60.02 35.3995C60.63 32.4295 61.38 29.4795 61.79 26.4795C62.01 24.8495 62.78 24.6995 64.09 24.7295C66.97 24.7895 69.85 24.6895 72.73 24.7795C74.09 24.8195 74.33 24.2795 74.08 23.1195C73.41 20.0195 72.77 16.9095 72.12 13.8095C71.99 13.8195 71.85 13.8395 71.72 13.8595Z" fill="black"/>
<path d="M217.98 65.2998C219.7 60.9498 221.45 56.6398 223.08 52.2898C223.6 50.8898 224.2 50.0398 225.88 50.2898C227.75 50.5798 230.39 49.4398 231.34 50.7698C232.13 51.8798 230.39 54.1198 229.72 55.8298C227 62.8398 224.15 69.8098 221.47 76.8298C220.92 78.2598 220.35 78.8998 218.7 78.8398C214.84 78.6998 214.85 78.8098 213.4 75.1198C210.39 67.4698 207.4 59.8098 204.32 52.1898C203.68 50.6098 203.9 50.2698 205.61 50.2698C211.66 50.2698 211.65 50.2198 213.85 55.9098C215.02 58.9398 216.26 61.9398 217.49 64.9498C217.54 65.0898 217.73 65.1398 217.98 65.2998Z" fill="black"/>
<path d="M0.689941 50.3401C3.19994 50.3401 5.36994 50.4001 7.52994 50.3101C8.68994 50.2601 8.92993 50.9701 9.25993 51.8001C10.7499 55.6301 12.2599 59.4601 13.7999 63.2701C14.0799 63.9601 14.1599 64.7801 15.0499 65.3301C16.8299 60.8301 18.6299 56.4101 20.3099 51.9401C20.7599 50.7301 21.31 50.2201 22.64 50.3001C24.63 50.4201 26.6299 50.3301 28.9299 50.3301C26.2499 57.1701 23.6899 63.7101 21.1299 70.2501C20.2199 72.5601 19.2699 74.8601 18.4299 77.1901C18.0099 78.3601 17.4299 79.0001 16.0699 78.8101C15.1499 78.6801 14.1999 78.7301 13.2699 78.8001C12.2799 78.8701 11.7699 78.5401 11.3799 77.5501C7.89994 68.6001 4.36994 59.6701 0.689941 50.3401Z" fill="black"/>
<path d="M106.91 15.5098C108.69 10.9798 110.42 6.75977 112 2.48977C112.48 1.19977 113.1 0.649779 114.51 0.749779C116.36 0.879779 118.23 0.779778 120.42 0.779778C119.3 3.63978 118.27 6.26978 117.24 8.90978C114.88 14.8998 112.48 20.8698 110.2 26.8898C109.77 28.0298 109.25 28.4098 108.04 28.4198C103.98 28.4398 103.97 28.4898 102.48 24.7098C99.5699 17.3598 96.7199 9.97978 93.7399 2.65978C93.0699 1.00978 93.4699 0.749789 95.0899 0.759789C100.73 0.759789 100.74 0.709789 102.88 6.00979C104.1 9.02979 105.29 12.0598 106.49 15.0798C106.52 15.1298 106.59 15.1698 106.91 15.5098Z" fill="black"/>
<path d="M265.17 40.5497C264.92 40.6497 264.85 40.6997 264.78 40.7097C257.81 41.1897 257.82 41.1898 256.09 34.5398C255.46 32.1298 254.79 29.7398 254.21 27.3198C254 26.4498 253.71 25.8197 252.7 25.9897C251.02 26.2697 250.95 25.2498 251.06 24.0398C251.1 23.6498 251.07 23.2598 251.07 22.8698C251.07 19.0998 251.07 19.0698 254.7 18.7598C256.05 18.6398 256.64 17.9798 256.64 16.6698C256.63 14.6498 256.57 12.6198 256.66 10.5998C256.74 8.65976 255.87 7.77976 254.01 8.06976C251.53 8.45976 250.9 7.46974 251.01 5.07974C251.21 0.769742 251.07 0.759766 255.49 0.759766C259.93 0.759766 263.9 4.70976 263.9 9.12976C263.9 11.6998 263.81 14.2698 263.92 16.8398C264.02 19.2498 263.94 21.4897 261.65 22.9897C260.63 23.6597 261.05 24.6197 261.28 25.5197C262.57 30.4997 263.85 35.4597 265.17 40.5497Z" fill="black"/>
<path d="M232.23 20.9801C232.23 25.1801 232.18 29.3901 232.26 33.5901C232.29 34.9501 231.89 35.9201 230.89 36.8401C228.71 38.8401 227.04 41.5601 223.33 40.8401C222.16 40.6101 221.48 40.5601 221.6 39.1601C221.71 37.7701 221.67 36.3601 221.61 34.9601C221.56 33.8901 221.86 33.3801 223.04 33.4501C224.57 33.5401 225.01 32.5801 225.01 31.2001C224.99 24.2701 225 17.3401 225.01 10.4201C225.01 8.97011 224.56 8.0001 222.89 8.0601C222.46 8.0701 221.76 8.2301 221.73 7.6301C221.64 5.5401 221.68 3.4401 221.69 1.3401C221.69 1.0001 222.01 0.780087 222.33 0.800087C224.48 0.940087 226.54 0.400097 228.56 2.3101C231.32 4.9201 232.72 7.56011 232.29 11.4201C231.95 14.5701 232.23 17.7901 232.23 20.9801Z" fill="black"/>
<path d="M208.65 20.9393C208.65 16.7393 208.76 12.5293 208.6 8.32929C208.53 6.54929 209.24 5.44929 210.42 4.32929C212.48 2.38929 214.17 -0.200686 217.65 0.759314C217.87 0.819314 218.19 0.679313 218.34 0.789313C220.34 2.31931 218.83 4.44929 219.23 6.26929C219.38 6.95929 219.69 8.15929 218.2 8.04929C216.25 7.90929 215.86 9.03932 215.87 10.6693C215.9 17.4393 215.89 24.2193 215.87 30.9893C215.87 32.3993 216.17 33.5393 217.88 33.4393C219.09 33.3693 219.35 33.9493 219.27 34.9793C219.22 35.5993 219.36 36.2393 219.24 36.8393C218.99 38.1293 220.08 40.2493 218.62 40.5693C216.62 41.0093 214.43 41.2193 212.37 39.3493C209.47 36.7193 208.18 33.9293 208.59 30.0293C208.9 27.0393 208.65 23.9793 208.65 20.9393Z" fill="black"/>
<path d="M14.29 24.4099C13.43 24.4099 12.55 24.2599 11.73 24.4299C7.14995 25.4299 4.13995 23.0799 1.42995 19.8599C0.86995 19.1899 0.709958 18.5599 0.719958 17.7599C0.739958 15.5799 0.95995 13.3799 0.67995 11.2399C0.17995 7.49992 1.29996 4.60993 4.37996 2.43993C5.11996 1.91993 5.51996 0.979929 6.54996 0.779929C9.99996 0.0999294 10.72 0.669934 10.72 4.15993C10.72 5.08993 10.72 6.02992 10.72 6.95992C10.72 7.51992 10.73 8.04992 9.90996 8.04992C8.21996 8.04992 7.90995 9.13992 7.92995 10.5499C8.01995 18.0799 7.05996 17.3899 14.24 16.9899C18.73 16.7399 20.42 19.9599 22.82 22.3499C23.72 23.2399 23.39 24.4999 21.53 24.4199C19.11 24.3299 16.7 24.4099 14.29 24.4099Z" fill="black"/>
<path d="M158.87 24.4101C157.78 24.4101 156.67 24.2801 155.61 24.4401C152.08 24.9701 149.41 23.8301 147.11 21.0301C145.9 19.5501 145.04 18.3001 145.23 16.3401C145.39 14.7201 145.45 13.0501 145.22 11.4501C144.66 7.63014 145.83 4.65014 148.99 2.42014C149.68 1.94014 150.07 1.07014 150.95 0.820135C154.13 -0.099865 155.37 0.840132 155.37 4.16013C155.37 5.09013 155.37 6.03012 155.37 6.96012C155.37 7.53012 155.35 8.06013 154.55 8.06013C152.65 8.05013 152.55 9.33012 152.57 10.7701C152.67 18.0201 151.64 17.4101 158.84 17.0001C163.34 16.7501 164.98 20.0201 167.4 22.3801C168.25 23.2001 168.03 24.5501 166.1 24.4501C163.7 24.3201 161.29 24.4101 158.87 24.4101Z" fill="black"/>
<path d="M319.24 24.4094C317.99 24.4094 316.73 24.2494 315.51 24.4394C312.2 24.9494 309.83 23.7394 307.63 21.2494C306.18 19.6194 305.3 18.1594 305.53 15.9594C305.69 14.4194 305.75 12.8194 305.52 11.2994C304.97 7.56943 306.34 4.90944 309.11 2.37944C310.89 0.749443 312.63 0.759428 314.62 0.739428C315.45 0.729428 315.68 1.15944 315.67 1.90944C315.65 3.61944 315.66 5.32943 315.67 7.04943C315.68 7.69943 315.46 8.04944 314.74 8.05944C313.18 8.06944 312.85 9.06944 312.87 10.4094C312.99 18.1294 311.87 17.3494 319.28 16.9794C323.8 16.7594 325.33 20.1494 327.78 22.4694C328.42 23.0794 328.36 24.5494 326.49 24.4394C324.07 24.3094 321.65 24.4094 319.24 24.4094Z" fill="black"/>
<path d="M199.38 13.8592C199.38 14.7892 199.25 15.7492 199.4 16.6592C199.96 20.1292 198.53 22.5193 196.08 24.9793C193.27 27.8093 190.04 26.9393 187.19 26.5093C185.65 26.2693 186.77 23.2392 186.57 21.4892C186.5 20.8492 186.09 19.8493 187.25 19.5693C187.47 19.5093 187.72 19.5593 187.95 19.5393C192.1 19.2493 192.1 19.2492 192.1 15.0192C192.1 13.5392 192.04 12.0592 192.11 10.5792C192.19 8.81923 191.52 8.02924 189.67 8.02924C186.53 8.03924 186.53 7.96925 186.53 4.81925C186.53 0.769253 186.53 0.769245 190.54 0.779245C195.62 0.779245 199.38 4.55925 199.38 9.65925C199.38 11.0592 199.38 12.4592 199.38 13.8592Z" fill="black"/>
<path d="M320.15 75.9794C320.15 80.5694 320.08 85.1594 320.18 89.7494C320.21 91.3094 319.71 91.6694 318.21 91.6594C312.63 91.6494 312.63 91.7094 312.63 86.1194C312.63 78.2594 312.67 70.4094 312.59 62.5494C312.57 60.8394 312.86 60.1194 314.82 60.1694C320.13 60.2894 320.14 60.1894 320.14 65.4794C320.15 68.9794 320.15 72.4794 320.15 75.9794Z" fill="black"/>
<path d="M156.43 40.7699C156.35 40.7699 156.27 40.7599 156.2 40.7699C151.6 41.7999 148.63 39.3399 145.94 36.1099C144.76 34.6899 145.35 33.14 145.31 31.65C145.21 27.9 145.28 27.9 149.09 27.89C149.63 27.89 150.19 27.95 150.72 27.87C152.32 27.64 152.69 28.37 152.63 29.85C152.58 31.07 151.98 32.91 153.7 33.26C155.69 33.67 157.94 34.04 159.82 32.97C161.15 32.21 160.53 30.5099 160.44 29.2699C160.31 27.3299 160.73 26.6 162.91 26.69C167.7 26.89 167.31 26.79 167.82 31.51C168.33 36.19 165.19 38.34 162.35 40.41C161.04 41.37 158.45 40.57 156.44 40.57C156.43 40.65 156.43 40.7099 156.43 40.7699Z" fill="black"/>
<path d="M317 40.7701C316.56 40.7701 316.48 40.7601 316.4 40.7701C311.77 41.8401 308.86 39.2301 306.18 36.0501C305 34.6601 305.63 33.0701 305.59 31.5901C305.48 27.8801 305.55 27.8801 309.16 27.8801C309.47 27.8801 309.79 27.9301 310.09 27.8701C312.29 27.4701 313.27 28.2501 312.88 30.5801C312.49 32.8901 313.68 33.7101 315.85 33.4601C316 33.4401 316.16 33.4601 316.32 33.4601C320.71 33.4601 320.82 33.4601 320.68 28.9801C320.62 27.0801 321.25 26.7001 323.01 26.7301C327.96 26.8301 327.56 26.8001 328.08 31.6201C328.57 36.2001 325.49 38.2501 322.79 40.4001C321.24 41.6301 318.71 40.5701 317 40.7701Z" fill="black"/>
<path d="M12.2698 40.7693C11.7598 40.7693 11.5898 40.7393 11.4498 40.7693C6.76975 41.9093 3.94975 39.0793 1.25975 35.9893C0.199748 34.7793 0.799758 33.2993 0.769758 31.9593C0.689758 27.8993 0.739752 27.8993 4.66975 27.8993C7.83975 27.8993 7.90976 27.8993 7.90976 31.0293C7.90976 32.8293 8.63975 33.6293 10.4297 33.4793C10.6597 33.4593 10.8998 33.4793 11.1298 33.4793C16.1398 33.4893 15.9598 33.8793 15.7798 28.8693C15.7098 27.0393 16.2998 26.6993 17.9998 26.7293C23.1298 26.8193 22.7397 26.7793 23.2397 31.7093C23.7097 36.3193 20.4298 38.2193 17.8198 40.4293C16.4098 41.6193 13.9098 40.5893 12.2698 40.7693Z" fill="black"/>
<path d="M32.39 15.8694C32.39 11.4394 32.45 7.00938 32.36 2.57938C32.33 1.15938 32.71 0.749386 34.17 0.739386C39.54 0.709386 39.54 0.649387 39.54 5.95939C39.54 13.7294 39.5 21.4994 39.58 29.2694C39.6 30.7994 39.19 31.2094 37.66 31.1994C32.4 31.1694 32.4 31.2294 32.4 25.8894C32.39 22.5494 32.39 19.2094 32.39 15.8694Z" fill="black"/>
<path d="M164.28 76.8095C164.28 78.1295 164.1 79.4795 164.31 80.7695C164.96 84.6995 163.55 87.6695 160.4 89.9595C159.55 90.5795 159.07 91.5695 157.76 91.6495C153.49 91.9095 153.5 91.9695 153.5 87.6095C153.5 86.9095 153.54 86.2095 153.49 85.5095C153.42 84.5795 153.62 84.0695 154.73 84.0995C156.3 84.1395 156.89 83.1795 156.85 81.6895C156.81 80.3695 156.77 79.0395 156.86 77.7295C156.99 75.7795 156.95 74.1095 154.2 74.7195C153.44 74.8895 153.03 74.4895 153.1 73.6695C153.11 73.5195 153.11 73.3595 153.1 73.1995C152.84 67.2295 152.84 67.2295 158.85 67.2295C164.27 67.2295 164.27 67.2295 164.27 72.6095C164.28 74.0095 164.28 75.4095 164.28 76.8095Z" fill="black"/>
<path d="M281.49 25.3799C281.49 20.9399 281.54 16.5099 281.46 12.0699C281.43 10.7399 281.81 10.3999 283.13 10.3899C288.69 10.3199 288.69 10.2699 288.69 15.8499C288.69 23.5599 288.66 31.2599 288.72 38.9699C288.73 40.3399 288.46 40.8199 286.96 40.8199C281.51 40.8299 281.51 40.8899 281.5 35.4199C281.49 32.0699 281.49 28.7199 281.49 25.3799Z" fill="black"/>
<path d="M151.12 53.9993C151.12 54.6993 151.09 55.3993 151.13 56.0993C151.2 57.1393 151.12 57.8993 149.71 57.8393C148.18 57.7693 147.81 58.8193 147.81 60.1793C147.84 64.3893 147.75 68.5993 147.86 72.7993C147.9 74.3593 147.41 74.7593 145.89 74.7593C140.33 74.7593 140.33 74.8093 140.33 69.2193C140.33 65.4793 140.39 61.7393 140.3 57.9993C140.26 56.4893 140.57 55.3093 141.79 54.3293C142.76 53.5493 143.68 52.6693 144.43 51.6893C146.11 49.5093 148.41 50.5293 150.48 50.3893C151.09 50.3493 151.11 50.9493 151.11 51.4293C151.12 52.2893 151.12 53.1493 151.12 53.9993Z" fill="black"/>
<path d="M231.79 58.3997C231.79 69.0497 231.78 79.6897 231.81 90.3397C231.81 91.3797 231.39 91.5797 230.43 91.6397C224.3 92.0097 224.55 92.0197 224.23 85.9697C223.88 79.3797 224.94 73.2097 227.84 67.2797C229.26 64.3697 230.23 61.2397 231.4 58.2197C231.53 58.2797 231.66 58.3397 231.79 58.3997Z" fill="black"/>
<path d="M204.14 58.2197C206.47 64.1797 209.45 69.9897 210.93 76.1597C212.03 80.7297 211.18 85.7597 211.21 90.5797C211.22 91.3997 210.83 91.6497 210.07 91.6297C208.59 91.5897 207.1 91.5197 205.64 91.6497C204.09 91.7797 203.66 91.2297 203.69 89.6897C203.78 83.9297 203.73 78.1697 203.73 72.4097C203.73 67.7397 203.73 63.0697 203.73 58.3997C203.86 58.3397 204 58.2797 204.14 58.2197Z" fill="black"/>
<path d="M28.84 58.3994C28.84 65.5194 28.84 72.6494 28.84 79.7694C28.84 83.1994 28.8 86.6194 28.88 90.0494C28.91 91.2594 28.54 91.5994 27.31 91.6394C21.38 91.7994 21.63 91.8294 21.31 85.9894C20.96 79.4794 21.94 73.3694 24.81 67.4894C26.23 64.5694 27.2301 61.4394 28.4201 58.4094C28.5601 58.4094 28.7 58.3994 28.84 58.3994Z" fill="black"/>
<path d="M181.29 62.5599C181.29 66.0599 181.24 69.5599 181.32 73.0499C181.35 74.3699 180.95 74.7299 179.62 74.7599C173.8 74.8699 173.8 74.9199 173.8 69.2499C173.8 63.5799 173.86 57.8999 173.76 52.2299C173.73 50.6499 174.25 50.2999 175.74 50.2999C181.3 50.2899 181.3 50.2399 181.3 55.8099C181.29 58.0499 181.29 60.2999 181.29 62.5599Z" fill="black"/>
<path d="M184.24 13.9293C184.24 17.6593 184.18 21.3993 184.27 25.1293C184.3 26.4693 183.88 26.7993 182.56 26.8193C176.97 26.8993 176.97 26.9493 176.97 21.3793C176.97 15.1593 177.02 8.93927 176.94 2.71927C176.92 1.21927 177.28 0.739258 178.85 0.739258C184.24 0.749258 184.24 0.679267 184.24 5.99927C184.25 8.63927 184.24 11.2793 184.24 13.9293Z" fill="black"/>
<path d="M248.79 13.4595C248.79 17.0395 248.71 20.6295 248.83 24.1995C248.88 25.6795 248.4 25.9995 247 26.0195C241.5 26.0695 241.5 26.1195 241.5 20.6895C241.5 14.6895 241.55 8.69952 241.46 2.69952C241.44 1.17952 241.83 0.729521 243.38 0.729521C248.79 0.729521 248.79 0.6695 248.78 5.9895C248.78 8.4795 248.79 10.9695 248.79 13.4595Z" fill="black"/>
<path d="M1.20981 58.2598C2.91981 62.6298 4.47981 67.0598 6.37981 71.3398C7.79981 74.5398 8.4498 77.7598 8.2498 81.2498C8.0898 84.0398 8.1098 86.8498 8.2598 89.6398C8.3498 91.3498 7.72981 91.6597 6.15981 91.6497C0.799805 91.5997 0.799805 91.6598 0.799805 86.3798C0.799805 77.0598 0.799805 67.7398 0.799805 58.4098C0.929805 58.3598 1.06981 58.3098 1.20981 58.2598Z" fill="black"/>
<path d="M73.0997 58.2793C75.3897 64.0993 77.6697 69.9193 79.9597 75.7293C80.3797 76.7893 80.1697 77.8793 80.1697 78.9593C80.1997 82.6093 80.1297 86.2693 80.2097 89.9193C80.2397 91.2393 79.8497 91.6093 78.5197 91.6293C72.7197 91.7393 72.7197 91.7793 72.7197 86.1193C72.7197 76.8693 72.7197 67.6193 72.7197 58.3693C72.8497 58.3493 72.9697 58.3193 73.0997 58.2793Z" fill="black"/>
<path d="M271.74 58.2598C274.05 64.1398 276.38 70.0198 278.66 75.9098C278.87 76.4598 278.83 77.1298 278.83 77.7498C278.84 81.6398 278.71 85.5298 278.89 89.4098C278.98 91.3698 278.26 91.6898 276.52 91.6598C271.38 91.5698 271.38 91.6398 271.38 86.4398C271.38 77.8098 271.38 69.1797 271.38 60.5497C271.38 59.8097 271.38 59.0697 271.38 58.3297C271.5 58.2997 271.62 58.2798 271.74 58.2598Z" fill="black"/>
<path d="M316.26 57.8301C312.99 57.8301 309.72 57.7801 306.46 57.8501C305.27 57.8701 304.88 57.5601 304.84 56.3001C304.64 50.3101 304.6 50.3101 310.64 50.3101C315.85 50.3101 321.07 50.3501 326.28 50.2801C327.59 50.2601 327.97 50.6201 327.99 51.9601C328.09 57.8301 328.14 57.8201 322.33 57.8201C320.3 57.8301 318.28 57.8301 316.26 57.8301Z" fill="black"/>
<path d="M241.46 62.3094C241.46 58.8894 241.51 55.4694 241.44 52.0494C241.41 50.8094 241.66 50.3094 243.07 50.2894C248.92 50.1894 248.92 50.1394 248.92 55.9794C248.92 61.6594 248.89 67.3294 248.95 73.0094C248.96 74.2694 248.68 74.7394 247.3 74.7794C241.47 74.9294 241.47 74.9794 241.47 69.0794C241.46 66.8194 241.46 64.5594 241.46 62.3094Z" fill="black"/>
<path d="M120.38 8.51959C120.38 18.6996 120.36 28.8796 120.4 39.0596C120.41 40.3196 120.13 40.7796 118.76 40.7996C113.11 40.8996 113.36 40.9396 113.05 35.3696C112.68 28.9396 113.73 22.9196 116.55 17.1196C117.92 14.2996 118.89 11.2796 120.04 8.34961C120.15 8.40961 120.27 8.46959 120.38 8.51959Z" fill="black"/>
<path d="M93.64 8.59961C95.76 13.9996 97.86 19.4096 100.01 24.7996C100.7 26.5396 100.36 28.3396 100.4 30.1096C100.46 33.1396 100.37 36.1796 100.44 39.2096C100.46 40.3696 100.2 41.0096 98.91 40.7796C98.83 40.7696 98.75 40.7796 98.68 40.7796C93.21 40.8896 93.21 40.8896 93.21 35.4296C93.21 26.4996 93.21 17.5696 93.21 8.63962C93.35 8.61962 93.5 8.60961 93.64 8.59961Z" fill="black"/>
<path d="M285.13 8.06001C281.87 8.06001 278.61 8.02 275.35 8.08C274.28 8.1 273.9 7.82002 273.84 6.67002C273.51 0.770023 273.47 0.769998 279.26 0.769998C284.38 0.769998 289.51 0.81 294.63 0.74C295.95 0.72 296.32 1.10002 296.34 2.42002C296.45 8.06002 296.49 8.06001 290.95 8.06001C289.01 8.06001 287.07 8.06001 285.13 8.06001Z" fill="black"/>
<path d="M140.34 82.3493C140.34 77.1293 140.35 77.3093 145.05 77.0593C147.57 76.9293 148.05 77.8093 147.87 80.0293C147.71 81.9593 147.36 83.7393 150.48 84.4293C152.12 84.7893 150.81 88.0093 151.09 89.9093C151.18 90.5093 151.42 91.5593 150.38 91.5493C148.23 91.5293 145.81 92.3993 144.23 90.0093C144.02 89.6893 143.72 89.4193 143.41 89.1793C140.97 87.2993 139.48 85.0293 140.34 82.3493Z" fill="black"/>
<path d="M173.79 84.0898C173.79 82.2998 173.86 80.4999 173.76 78.7199C173.7 77.5199 174.05 77.1398 175.29 77.0898C181.28 76.8498 181.28 76.8099 181.28 82.8499C181.28 85.2599 181.22 87.6798 181.3 90.0898C181.34 91.3398 180.88 91.6099 179.69 91.6399C173.79 91.7799 173.79 91.8198 173.79 85.9598C173.79 85.3398 173.79 84.7098 173.79 84.0898Z" fill="black"/>
<path d="M164.28 59.6898C164.28 63.6198 164.28 63.6198 160.45 63.6198C159.75 63.6198 159.04 63.5498 158.36 63.6298C157.08 63.7898 156.8 63.2098 156.83 62.0398C156.89 59.9998 157.32 58.0398 154.03 57.5198C152.77 57.3198 153.67 54.2098 153.53 52.4298C153.48 51.7598 153.04 50.4698 154.01 50.4398C155.99 50.3798 158.21 49.4798 159.88 51.4298C160.38 52.0198 160.97 52.5298 161.52 53.0798C164.28 55.8498 164.28 55.8498 164.28 59.6898Z" fill="black"/>
<path d="M248.92 84.3001C248.92 85.0001 248.96 85.7001 248.91 86.4001C248.78 88.0801 249.68 90.6501 248.53 91.2301C246.84 92.0801 244.46 91.5401 242.37 91.6101C241.41 91.6401 241.46 90.9901 241.46 90.3501C241.46 86.3801 241.49 82.4101 241.44 78.4401C241.43 77.4501 241.68 76.9601 242.73 77.1101C242.81 77.1201 242.89 77.1101 242.96 77.1101C244.89 77.2301 247.95 76.3101 248.51 77.4401C249.43 79.3101 248.76 81.9601 248.76 84.2901C248.82 84.3001 248.87 84.3001 248.92 84.3001Z" fill="black"/>
<path d="M167.7 9.37931C167.7 13.6493 167.7 13.6493 163.81 13.6493C163.19 13.6493 162.56 13.5993 161.95 13.6593C160.88 13.7693 160.46 13.4393 160.45 12.2793C160.44 10.4293 161.28 7.98931 157.97 7.90931C157.58 7.89931 157.7 7.2593 157.7 6.8993C157.68 5.9693 157.58 5.01929 157.72 4.10929C157.9 2.99929 156.88 1.1993 158.4 0.899299C160.05 0.579299 162.13 0.0593171 163.54 1.94932C164 2.56932 164.57 3.1293 165.18 3.5893C167.27 5.1793 168.32 7.15931 167.7 9.37931Z" fill="black"/>
<path d="M327.95 9.79939C327.95 13.6494 327.95 13.6494 324.09 13.6494C323.55 13.6494 322.99 13.5794 322.46 13.6594C320.96 13.8994 320.63 13.2094 320.68 11.8294C320.74 10.1494 321.29 8.03941 318.4 7.97941C317.79 7.96941 317.94 7.27941 317.93 6.84941C317.91 5.99941 317.84 5.13939 317.94 4.29939C318.08 3.13939 317.26 1.25939 318.46 0.959391C320.25 0.509391 322.48 0.0294057 323.97 2.09941C324.33 2.59941 324.83 2.97941 325.27 3.41941C327.95 6.08941 327.95 6.08939 327.95 9.79939Z" fill="black"/>
<path d="M23.12 9.35987C23.12 13.6499 23.12 13.6499 19.22 13.6499C18.68 13.6499 18.12 13.5799 17.59 13.6599C16.08 13.8899 15.74 13.1999 15.79 11.8099C15.85 10.1199 16.4 8.00987 13.51 7.95987C12.91 7.94987 13.05 7.24988 13.04 6.80988C13.02 5.94988 12.93 5.07988 13.06 4.24988C13.24 3.10988 12.28 1.28987 13.69 0.959874C15.43 0.549874 17.58 0.08987 19.04 2.04987C19.45 2.60987 19.97 3.10988 20.52 3.52988C22.6 5.11988 23.73 7.07987 23.12 9.35987Z" fill="black"/>
<path d="M241.49 34.58C241.49 34.27 241.49 33.96 241.49 33.65C241.49 27.81 241.49 27.84 247.42 28.26C248.39 28.33 248.81 28.56 248.8 29.59C248.76 32.86 248.76 36.13 248.8 39.39C248.81 40.34 248.59 40.91 247.51 40.77C247.43 40.76 247.35 40.77 247.28 40.77C241.49 41.06 241.49 41.06 241.49 34.58Z" fill="black"/>
<path d="M184.24 34.9894C184.24 35.0694 184.24 35.1495 184.24 35.2195C184.24 41.2295 184.24 41.1994 178.27 40.7994C177.24 40.7294 176.95 40.4295 176.96 39.4395C177.01 36.4095 177.03 33.3695 176.96 30.3395C176.92 28.4895 178.36 28.9695 179.04 29.1895C180.75 29.7395 183.24 27.5395 184.15 30.3395C184.62 31.7495 184.24 33.4294 184.24 34.9894Z" fill="black"/>
<path d="M188.95 57.8195C183.63 57.8195 183.7 57.8195 183.63 52.5195C183.61 50.8195 183.98 50.1495 185.8 50.2895C187.96 50.4495 190.15 50.4195 192.32 50.2995C193.8 50.2195 194.32 50.7595 194.1 52.1595C194.08 52.3095 194.1 52.4695 194.1 52.6295C194.13 57.8195 194.13 57.8195 188.95 57.8195Z" fill="black"/>
<path d="M188.87 91.6096C183.67 91.6096 183.78 91.6096 183.62 86.4396C183.55 84.3896 184.24 83.8496 186.1 84.0996C187.02 84.2196 187.97 84.0696 188.89 84.1296C190.58 84.2296 193.19 83.3796 193.75 84.4896C194.59 86.1796 194.05 88.5596 194.09 90.6496C194.11 91.5296 193.52 91.6196 192.84 91.6096C191.52 91.6096 190.2 91.6096 188.87 91.6096Z" fill="black"/>
<path d="M256.45 50.3193C261.69 50.3193 261.62 50.3193 261.7 55.6693C261.73 57.3493 261.41 58.0393 259.57 57.8693C257.49 57.6893 255.36 57.7093 253.27 57.8593C251.56 57.9793 251.05 57.3093 251.3 55.7593C251.31 55.6793 251.3 55.5993 251.3 55.5293C251.29 50.3193 251.29 50.3193 256.45 50.3193Z" fill="black"/>
<path d="M256.54 91.62C251.28 91.62 251.36 91.62 251.27 86.27C251.24 84.56 251.62 83.93 253.42 84.08C255.51 84.25 257.63 84.25 259.71 84.08C261.44 83.94 261.94 84.6 261.67 86.16C261.66 86.24 261.67 86.32 261.67 86.39C261.67 91.62 261.67 91.62 256.54 91.62Z" fill="black"/>
<path d="M46.3899 33.4794C50.7599 33.4694 50.6099 33.4793 50.8199 37.8193C50.9299 40.2193 50.2799 41.2393 47.8299 40.7793C47.6799 40.7493 47.5199 40.7793 47.3599 40.7793C41.2899 40.7793 41.3099 40.7793 41.8899 34.7193C41.9699 33.8393 42.2099 33.4493 43.1099 33.4893C44.2099 33.5093 45.2999 33.4794 46.3899 33.4794Z" fill="black"/>
<path d="M183.67 70.9797C183.67 67.2197 183.67 67.2197 187.45 67.2197C190.79 67.2197 190.79 67.2197 190.79 70.7197C190.79 74.7297 190.79 74.7297 187.01 74.7197C183.67 74.7197 183.67 74.7197 183.67 70.9797Z" fill="black"/>
<path d="M258.37 71.1593C258.36 74.7293 258.36 74.7294 254.89 74.7294C254.27 74.7294 253.64 74.6793 253.03 74.7393C251.78 74.8693 251.09 74.5093 251.3 73.1093C251.37 72.6493 251.31 72.1793 251.31 71.7093C251.31 67.2093 251.31 67.3193 255.74 67.1593C257.81 67.0893 258.73 67.6094 258.39 69.7594C258.31 70.2094 258.37 70.6893 258.37 71.1593Z" fill="black"/>
<path d="M32.3999 37.1497C32.3999 33.4697 32.3999 33.4697 35.7799 33.4697C39.5399 33.4697 39.5399 33.4697 39.5399 38.1597C39.5399 40.7597 39.5199 40.5397 34.8899 40.8297C31.4099 41.0597 32.5599 38.8097 32.3999 37.1497Z" fill="black"/>
<path d="M126.96 84.8994C130.56 84.9094 130.56 84.9094 131.34 88.5694C131.98 91.6094 131.98 91.6094 128.8 91.6094C124.17 91.6094 123.35 90.7594 123.19 85.9694C123.16 85.1294 123.37 84.8494 124.18 84.8894C125.1 84.9294 126.03 84.8994 126.96 84.8994Z" fill="black"/>
<path d="M59.1702 84.9C62.8702 84.9 62.8702 84.9 63.6102 88.5C64.2502 91.61 64.2502 91.61 61.1702 91.61C56.6902 91.61 56.7902 91.59 55.7002 87.22C55.2302 85.34 55.5502 84.6 57.5402 84.89C58.0702 84.96 58.6202 84.9 59.1702 84.9Z" fill="black"/>
<path d="M79.9398 34.2901C83.6998 34.2901 83.4898 34.3501 84.4798 38.1201C85.1498 40.6601 84.3098 40.8801 82.1398 40.8001C77.6198 40.6501 77.6898 40.7401 76.6498 36.3401C76.2598 34.7001 76.5298 34.0201 78.2998 34.2701C78.8398 34.3601 79.3998 34.2901 79.9398 34.2901Z" fill="black"/>
</svg>
